<?xml version="1.0" encoding="utf-8"?>
<!-- Generator: Adobe Illustrator 15.1.0, SVG Export Plug-In . SVG Version: 6.00 Build 0)  -->
<!DOCTYPE svg PUBLIC "-//W3C//DTD SVG 1.1//EN" "http://www.w3.org/Graphics/SVG/1.1/DTD/svg11.dtd">
<svg version="1.1" xmlns="http://www.w3.org/2000/svg" xmlns:xlink="http://www.w3.org/1999/xlink" x="0px" y="0px"
	 width="193.491px" height="193.491px" viewBox="0 0 193.491 193.491" enable-background="new 0 0 193.491 193.491"
	 xml:space="preserve">
<g id="cal_lines" display="none">
	<path display="inline" fill="none" stroke="#000000" stroke-width="10" stroke-miterlimit="10" d="M171.565,161.699
		c0,5.141-4.167,9.308-9.307,9.308H31.946c-5.14,0-9.308-4.167-9.308-9.308V40.752c0-5.14,4.167-9.308,9.308-9.308h130.312
		c5.141,0,9.307,4.167,9.307,9.308V161.699z"/>
	<path display="inline" d="M59.846,51.543c0,2.656-2.154,4.808-4.811,4.808h0.513c-2.655,0-4.809-2.152-4.809-4.808V13.858
		c0-2.656,2.154-4.808,4.809-4.808h-0.513c2.657,0,4.811,2.152,4.811,4.808V51.543z"/>
	<path display="inline" d="M142.945,51.543c0,2.656-2.153,4.808-4.811,4.808h0.513c-2.655,0-4.809-2.152-4.809-4.808V13.858
		c0-2.656,2.154-4.808,4.809-4.808h-0.513c2.657,0,4.811,2.152,4.811,4.808V51.543z"/>
	<circle display="inline" cx="55.292" cy="52.247" r="9.591"/>
	<circle display="inline" cx="138.392" cy="52.247" r="9.591"/>

		<line display="inline" fill="none" stroke="#000000" stroke-width="10" stroke-miterlimit="10" x1="22.639" y1="71.228" x2="171.565" y2="71.228"/>
</g>
<g id="filled" display="none">
	<path display="inline" d="M55.339,100.538c0,2.009-1.628,3.638-3.637,3.638H38.365c-2.009,0-3.638-1.629-3.638-3.638V87.201
		c0-2.009,1.629-3.638,3.638-3.638h13.337c2.009,0,3.637,1.629,3.637,3.638V100.538z"/>
	<path display="inline" d="M81.426,100.538c0,2.009-1.628,3.638-3.637,3.638H64.451c-2.009,0-3.637-1.629-3.637-3.638V87.201
		c0-2.009,1.628-3.638,3.637-3.638h13.337c2.009,0,3.637,1.629,3.637,3.638V100.538z"/>
	<path display="inline" d="M107.513,100.538c0,2.009-1.628,3.638-3.638,3.638H90.538c-2.009,0-3.637-1.629-3.637-3.638V87.201
		c0-2.009,1.628-3.638,3.637-3.638h13.337c2.01,0,3.638,1.629,3.638,3.638V100.538z"/>
	<path display="inline" d="M133.6,100.538c0,2.009-1.629,3.638-3.638,3.638h-13.337c-2.009,0-3.638-1.629-3.638-3.638V87.201
		c0-2.009,1.629-3.638,3.638-3.638h13.337c2.009,0,3.638,1.629,3.638,3.638V100.538z"/>
	<path display="inline" d="M159.687,100.538c0,2.009-1.628,3.638-3.638,3.638h-13.337c-2.009,0-3.637-1.629-3.637-3.638V87.201
		c0-2.009,1.628-3.638,3.637-3.638h13.337c2.01,0,3.638,1.629,3.638,3.638V100.538z"/>
	<path display="inline" d="M55.339,126.94c0,2.009-1.628,3.637-3.637,3.637H38.365c-2.009,0-3.638-1.628-3.638-3.637v-13.337
		c0-2.008,1.629-3.637,3.638-3.637h13.337c2.009,0,3.637,1.629,3.637,3.637V126.94z"/>
	<path display="inline" d="M81.426,126.94c0,2.009-1.628,3.637-3.637,3.637H64.451c-2.009,0-3.637-1.628-3.637-3.637v-13.337
		c0-2.008,1.628-3.637,3.637-3.637h13.337c2.009,0,3.637,1.629,3.637,3.637V126.94z"/>
	<path display="inline" d="M107.513,126.94c0,2.009-1.628,3.637-3.638,3.637H90.538c-2.009,0-3.637-1.628-3.637-3.637v-13.337
		c0-2.008,1.628-3.637,3.637-3.637h13.337c2.01,0,3.638,1.629,3.638,3.637V126.94z"/>
	<path display="inline" d="M133.6,126.94c0,2.009-1.629,3.637-3.638,3.637h-13.337c-2.009,0-3.638-1.628-3.638-3.637v-13.337
		c0-2.008,1.629-3.637,3.638-3.637h13.337c2.009,0,3.638,1.629,3.638,3.637V126.94z"/>
	<path display="inline" d="M159.687,126.94c0,2.009-1.628,3.637-3.638,3.637h-13.337c-2.009,0-3.637-1.628-3.637-3.637v-13.337
		c0-2.008,1.628-3.637,3.637-3.637h13.337c2.01,0,3.638,1.629,3.638,3.637V126.94z"/>
	<path display="inline" d="M55.339,153.668c0,2.009-1.628,3.637-3.637,3.637H38.365c-2.009,0-3.638-1.628-3.638-3.637v-13.337
		c0-2.009,1.629-3.637,3.638-3.637h13.337c2.009,0,3.637,1.628,3.637,3.637V153.668z"/>
	<path display="inline" d="M81.426,153.668c0,2.009-1.628,3.637-3.637,3.637H64.451c-2.009,0-3.637-1.628-3.637-3.637v-13.337
		c0-2.009,1.628-3.637,3.637-3.637h13.337c2.009,0,3.637,1.628,3.637,3.637V153.668z"/>
	<path display="inline" d="M107.513,153.668c0,2.009-1.628,3.637-3.638,3.637H90.538c-2.009,0-3.637-1.628-3.637-3.637v-13.337
		c0-2.009,1.628-3.637,3.637-3.637h13.337c2.01,0,3.638,1.628,3.638,3.637V153.668z"/>
	<path display="inline" d="M133.6,153.668c0,2.009-1.629,3.637-3.638,3.637h-13.337c-2.009,0-3.638-1.628-3.638-3.637v-13.337
		c0-2.009,1.629-3.637,3.638-3.637h13.337c2.009,0,3.638,1.628,3.638,3.637V153.668z"/>
	<path display="inline" d="M159.687,153.668c0,2.009-1.628,3.637-3.638,3.637h-13.337c-2.009,0-3.637-1.628-3.637-3.637v-13.337
		c0-2.009,1.628-3.637,3.637-3.637h13.337c2.01,0,3.638,1.628,3.638,3.637V153.668z"/>
</g>
<g id="next_arrow" display="none">
	<path display="inline" fill="#FFFFFF" d="M114.898,152.189c0,0.452,0.448,0.818,1,0.818h87.846c0.552,0,1-0.366,1-0.818V89.588
		c0-0.452-0.448-0.818-1-0.818h-87.846c-0.552,0-1,0.366-1,0.818V152.189z"/>
	<path display="inline" d="M375.065,435.534c0,17.396-14.097,31.476-31.481,31.476H-0.454c-17.385,0-31.481-14.079-31.481-31.476
		v-1.905c0-17.401,14.096-31.481,31.481-31.481h344.038c17.385,0,31.481,14.08,31.481,31.481V435.534z"/>
	<path display="inline" d="M364.493,457.789c-12.301,12.301-32.225,12.288-44.517-0.004L196.913,334.721
		c-12.293-12.293-12.305-32.216-0.004-44.518l1.348-1.347c12.304-12.304,32.229-12.292,44.521,0L365.84,411.919
		c12.293,12.293,12.305,32.217,0,44.521L364.493,457.789z"/>
	<path display="inline" d="M365.844,412.718c12.301,12.301,12.288,32.225-0.004,44.518L242.777,580.298
		c-12.293,12.293-32.217,12.305-44.518,0.004l-1.348-1.348c-12.304-12.303-12.292-32.229,0-44.521l123.063-123.063
		c12.293-12.293,32.217-12.305,44.521,0L365.844,412.718z"/>
	<path display="inline" d="M198.744,121.233c0,3.168-2.567,5.731-5.732,5.731h-62.647c-3.166,0-5.732-2.563-5.732-5.731v-0.347
		c0-3.169,2.567-5.733,5.732-5.733h62.647c3.166,0,5.732,2.564,5.732,5.733V121.233z"/>
	<path display="inline" d="M196.819,125.286c-2.24,2.24-5.868,2.238-8.106,0l-22.41-22.409c-2.238-2.238-2.24-5.866,0-8.106
		l0.245-0.246c2.241-2.241,5.869-2.238,8.107,0l22.409,22.409c2.239,2.238,2.241,5.866,0,8.107L196.819,125.286z"/>
	<path display="inline" d="M197.065,117.079c2.24,2.24,2.237,5.868-0.001,8.106l-22.409,22.409c-2.239,2.239-5.866,2.241-8.106,0
		l-0.246-0.245c-2.24-2.24-2.238-5.869,0-8.107l22.41-22.409c2.238-2.238,5.866-2.241,8.107,0L197.065,117.079z"/>
</g>
<g id="cal_base" display="none">
	<path display="inline" d="M59.846,51.543c0,2.656-2.154,4.808-4.811,4.808h0.513c-2.655,0-4.809-2.152-4.809-4.808V13.858
		c0-2.656,2.154-4.808,4.809-4.808h-0.513c2.657,0,4.811,2.152,4.811,4.808V51.543z"/>
	<path display="inline" d="M142.945,51.543c0,2.656-2.153,4.808-4.811,4.808h0.513c-2.655,0-4.809-2.152-4.809-4.808V13.858
		c0-2.656,2.154-4.808,4.809-4.808h-0.513c2.657,0,4.811,2.152,4.811,4.808V51.543z"/>
	<circle display="inline" cx="55.292" cy="52.247" r="9.591"/>
	<circle display="inline" cx="138.392" cy="52.247" r="9.591"/>
	<g display="inline">
		<path d="M171.565,161.699h-5c-0.002,1.206-0.475,2.251-1.262,3.046c-0.795,0.788-1.84,1.259-3.045,1.262H31.946
			c-1.205-0.002-2.25-0.474-3.046-1.262c-0.787-0.795-1.259-1.841-1.262-3.046V40.752c0.002-1.205,0.474-2.25,1.262-3.046
			c0.795-0.788,1.841-1.259,3.046-1.262h130.312c1.206,0.002,2.25,0.474,3.045,1.262c0.788,0.795,1.259,1.84,1.262,3.046v120.947
			H171.565h5V40.752c0.002-3.935-1.609-7.543-4.19-10.117c-2.573-2.582-6.182-4.193-10.117-4.191H31.946
			c-3.935-0.002-7.543,1.609-10.117,4.191c-2.582,2.573-4.193,6.182-4.191,10.117v120.947c-0.002,3.935,1.609,7.544,4.19,10.117
			c2.574,2.582,6.182,4.193,10.117,4.191h130.312c3.935,0.002,7.544-1.609,10.117-4.191c2.581-2.574,4.192-6.182,4.19-10.117
			H171.565z"/>
		<polyline points="22.639,76.228 171.565,76.228 171.565,66.228 22.639,66.228 		"/>
	</g>
</g>
<g id="month" display="none">
	<path display="inline" d="M81.426,100.538c0,2.009-1.628,3.638-3.637,3.638H64.451c-2.009,0-3.637-1.629-3.637-3.638V87.201
		c0-2.009,1.628-3.638,3.637-3.638h13.337c2.009,0,3.637,1.629,3.637,3.638V100.538z"/>
	<path display="inline" d="M107.513,100.538c0,2.009-1.628,3.638-3.638,3.638H90.538c-2.009,0-3.637-1.629-3.637-3.638V87.201
		c0-2.009,1.628-3.638,3.637-3.638h13.337c2.01,0,3.638,1.629,3.638,3.638V100.538z"/>
	<path display="inline" d="M133.6,100.538c0,2.009-1.629,3.638-3.638,3.638h-13.337c-2.009,0-3.638-1.629-3.638-3.638V87.201
		c0-2.009,1.629-3.638,3.638-3.638h13.337c2.009,0,3.638,1.629,3.638,3.638V100.538z"/>
	<path display="inline" d="M159.687,100.538c0,2.009-1.628,3.638-3.638,3.638h-13.337c-2.009,0-3.637-1.629-3.637-3.638V87.201
		c0-2.009,1.628-3.638,3.637-3.638h13.337c2.01,0,3.638,1.629,3.638,3.638V100.538z"/>
	<path display="inline" d="M55.339,126.94c0,2.009-1.628,3.637-3.637,3.637H38.365c-2.009,0-3.638-1.628-3.638-3.637v-13.337
		c0-2.008,1.629-3.637,3.638-3.637h13.337c2.009,0,3.637,1.629,3.637,3.637V126.94z"/>
	<path display="inline" d="M81.426,126.94c0,2.009-1.628,3.637-3.637,3.637H64.451c-2.009,0-3.637-1.628-3.637-3.637v-13.337
		c0-2.008,1.628-3.637,3.637-3.637h13.337c2.009,0,3.637,1.629,3.637,3.637V126.94z"/>
	<path display="inline" d="M107.513,126.94c0,2.009-1.628,3.637-3.638,3.637H90.538c-2.009,0-3.637-1.628-3.637-3.637v-13.337
		c0-2.008,1.628-3.637,3.637-3.637h13.337c2.01,0,3.638,1.629,3.638,3.637V126.94z"/>
	<path display="inline" d="M133.6,126.94c0,2.009-1.629,3.637-3.638,3.637h-13.337c-2.009,0-3.638-1.628-3.638-3.637v-13.337
		c0-2.008,1.629-3.637,3.638-3.637h13.337c2.009,0,3.638,1.629,3.638,3.637V126.94z"/>
	<path display="inline" d="M159.687,126.94c0,2.009-1.628,3.637-3.638,3.637h-13.337c-2.009,0-3.637-1.628-3.637-3.637v-13.337
		c0-2.008,1.628-3.637,3.637-3.637h13.337c2.01,0,3.638,1.629,3.638,3.637V126.94z"/>
	<path display="inline" d="M55.339,153.668c0,2.009-1.628,3.637-3.637,3.637H38.365c-2.009,0-3.638-1.628-3.638-3.637v-13.337
		c0-2.009,1.629-3.637,3.638-3.637h13.337c2.009,0,3.637,1.628,3.637,3.637V153.668z"/>
	<path display="inline" d="M81.426,153.668c0,2.009-1.628,3.637-3.637,3.637H64.451c-2.009,0-3.637-1.628-3.637-3.637v-13.337
		c0-2.009,1.628-3.637,3.637-3.637h13.337c2.009,0,3.637,1.628,3.637,3.637V153.668z"/>
	<path display="inline" d="M107.513,153.668c0,2.009-1.628,3.637-3.638,3.637H90.538c-2.009,0-3.637-1.628-3.637-3.637v-13.337
		c0-2.009,1.628-3.637,3.637-3.637h13.337c2.01,0,3.638,1.628,3.638,3.637V153.668z"/>
</g>
<g id="next_month" display="none">
	<path display="inline" d="M81.426,100.538c0,2.009-1.628,3.638-3.637,3.638H64.451c-2.009,0-3.637-1.629-3.637-3.638V87.201
		c0-2.009,1.628-3.638,3.637-3.638h13.337c2.009,0,3.637,1.629,3.637,3.638V100.538z"/>
	<path display="inline" d="M107.513,100.538c0,2.009-1.628,3.638-3.638,3.638H90.538c-2.009,0-3.637-1.629-3.637-3.638V87.201
		c0-2.009,1.628-3.638,3.637-3.638h13.337c2.01,0,3.638,1.629,3.638,3.638V100.538z"/>
	<path display="inline" d="M133.6,100.538c0,2.009-1.629,3.638-3.638,3.638h-13.337c-2.009,0-3.638-1.629-3.638-3.638V87.201
		c0-2.009,1.629-3.638,3.638-3.638h13.337c2.009,0,3.638,1.629,3.638,3.638V100.538z"/>
	<path display="inline" d="M159.687,100.538c0,2.009-1.628,3.638-3.638,3.638h-13.337c-2.009,0-3.637-1.629-3.637-3.638V87.201
		c0-2.009,1.628-3.638,3.637-3.638h13.337c2.01,0,3.638,1.629,3.638,3.638V100.538z"/>
	<path display="inline" d="M55.339,126.94c0,2.009-1.628,3.637-3.637,3.637H38.365c-2.009,0-3.638-1.628-3.638-3.637v-13.337
		c0-2.008,1.629-3.637,3.638-3.637h13.337c2.009,0,3.637,1.629,3.637,3.637V126.94z"/>
	<path display="inline" d="M81.426,126.94c0,2.009-1.628,3.637-3.637,3.637H64.451c-2.009,0-3.637-1.628-3.637-3.637v-13.337
		c0-2.008,1.628-3.637,3.637-3.637h13.337c2.009,0,3.637,1.629,3.637,3.637V126.94z"/>
	<path display="inline" d="M107.513,126.94c0,2.009-1.628,3.637-3.638,3.637H90.538c-2.009,0-3.637-1.628-3.637-3.637v-13.337
		c0-2.008,1.628-3.637,3.637-3.637h13.337c2.01,0,3.638,1.629,3.638,3.637V126.94z"/>
	<path display="inline" d="M133.6,153.668c0,2.009-1.629,3.637-3.638,3.637h-13.337c-2.009,0-3.638-1.628-3.638-3.637v-13.337
		c0-2.008,1.629-3.637,3.638-3.637h13.337c2.009,0,3.638,1.629,3.638,3.637V153.668z"/>
	<path display="inline" d="M55.339,153.668c0,2.009-1.628,3.637-3.637,3.637H38.365c-2.009,0-3.638-1.628-3.638-3.637v-13.337
		c0-2.009,1.629-3.637,3.638-3.637h13.337c2.009,0,3.637,1.628,3.637,3.637V153.668z"/>
	<path display="inline" d="M81.426,153.668c0,2.009-1.628,3.637-3.637,3.637H64.451c-2.009,0-3.637-1.628-3.637-3.637v-13.337
		c0-2.009,1.628-3.637,3.637-3.637h13.337c2.009,0,3.637,1.628,3.637,3.637V153.668z"/>
	<path display="inline" d="M107.513,153.668c0,2.009-1.628,3.637-3.638,3.637H90.538c-2.009,0-3.637-1.628-3.637-3.637v-13.337
		c0-2.009,1.628-3.637,3.637-3.637h13.337c2.01,0,3.638,1.628,3.638,3.637V153.668z"/>
	<g id="Layer_7_copy" display="inline">
		<path d="M198.744,121.233c0,3.168-2.567,5.731-5.732,5.731h-68.647c-3.166,0-5.732-2.563-5.732-5.731v-0.347
			c0-3.169,2.567-5.733,5.732-5.733h68.647c3.166,0,5.732,2.564,5.732,5.733V121.233z"/>
		<path d="M196.819,125.286c-2.24,2.24-5.868,2.238-8.106,0l-22.41-22.409c-2.238-2.238-2.24-5.866,0-8.106l0.245-0.246
			c2.241-2.241,5.869-2.238,8.107,0l22.409,22.409c2.239,2.238,2.241,5.866,0,8.107L196.819,125.286z"/>
		<path d="M197.065,117.079c2.24,2.24,2.237,5.868-0.001,8.106l-22.409,22.409c-2.239,2.239-5.866,2.241-8.106,0l-0.246-0.245
			c-2.24-2.24-2.238-5.869,0-8.107l22.41-22.409c2.238-2.238,5.866-2.241,8.107,0L197.065,117.079z"/>
		<path d="M59.846,51.543c0,2.656-2.154,4.808-4.811,4.808h0.513c-2.655,0-4.809-2.152-4.809-4.808V13.858
			c0-2.656,2.154-4.808,4.809-4.808h-0.513c2.657,0,4.811,2.152,4.811,4.808V51.543z"/>
		<path d="M142.945,51.543c0,2.656-2.153,4.808-4.811,4.808h0.513c-2.655,0-4.809-2.152-4.809-4.808V13.858
			c0-2.656,2.154-4.808,4.809-4.808h-0.513c2.657,0,4.811,2.152,4.811,4.808V51.543z"/>
		<circle cx="55.292" cy="52.247" r="9.591"/>
		<circle cx="138.392" cy="52.247" r="9.591"/>
		<polyline points="22.639,76.228 171.565,76.228 171.565,66.228 22.639,66.228 		"/>
	</g>
	<g display="inline">
		<path fill="none" d="M165.303,37.707c-0.795-0.788-1.84-1.259-3.045-1.262H31.946c-1.205,0.002-2.25,0.474-3.046,1.262
			c-0.788,0.795-1.259,1.841-1.262,3.046v120.947c0.002,1.206,0.475,2.251,1.262,3.046c0.795,0.788,1.841,1.259,3.046,1.262h130.312
			c1.206-0.002,2.25-0.474,3.045-1.262c0.787-0.795,1.259-1.841,1.262-3.046v-7.305h-3.822V88.77h3.822V40.752
			C166.563,39.547,166.091,38.501,165.303,37.707z"/>
		<path d="M166.565,161.699c-0.002,1.206-0.475,2.251-1.262,3.046c-0.795,0.788-1.84,1.259-3.045,1.262H31.946
			c-1.205-0.002-2.25-0.474-3.046-1.262c-0.787-0.795-1.259-1.841-1.262-3.046V40.752c0.002-1.205,0.474-2.25,1.262-3.046
			c0.795-0.788,1.841-1.259,3.046-1.262h130.312c1.206,0.002,2.25,0.474,3.045,1.262c0.788,0.795,1.259,1.84,1.262,3.046V88.77h10
			V40.752c0.002-3.935-1.609-7.543-4.19-10.117c-2.573-2.582-6.182-4.193-10.117-4.191H31.946
			c-3.935-0.002-7.543,1.609-10.117,4.191c-2.582,2.573-4.193,6.182-4.191,10.117v120.947c-0.002,3.935,1.609,7.544,4.19,10.117
			c2.574,2.582,6.182,4.193,10.117,4.191h130.312c3.935,0.002,7.544-1.609,10.117-4.191c2.581-2.574,4.192-6.182,4.19-10.117v-7.305
			h-10V161.699z"/>
	</g>
</g>
<g id="week" display="none">
	<path display="inline" d="M55.339,126.94c0,2.009-1.628,3.637-3.637,3.637H38.365c-2.009,0-3.638-1.628-3.638-3.637v-13.337
		c0-2.008,1.629-3.637,3.638-3.637h13.337c2.009,0,3.637,1.629,3.637,3.637V126.94z"/>
	<path display="inline" d="M81.426,126.94c0,2.009-1.628,3.637-3.637,3.637H64.451c-2.009,0-3.637-1.628-3.637-3.637v-13.337
		c0-2.008,1.628-3.637,3.637-3.637h13.337c2.009,0,3.637,1.629,3.637,3.637V126.94z"/>
	<path display="inline" d="M107.513,126.94c0,2.009-1.628,3.637-3.638,3.637H90.538c-2.009,0-3.637-1.628-3.637-3.637v-13.337
		c0-2.008,1.628-3.637,3.637-3.637h13.337c2.01,0,3.638,1.629,3.638,3.637V126.94z"/>
	<path display="inline" d="M133.6,126.94c0,2.009-1.629,3.637-3.638,3.637h-13.337c-2.009,0-3.638-1.628-3.638-3.637v-13.337
		c0-2.008,1.629-3.637,3.638-3.637h13.337c2.009,0,3.638,1.629,3.638,3.637V126.94z"/>
	<path display="inline" d="M159.687,126.94c0,2.009-1.628,3.637-3.638,3.637h-13.337c-2.009,0-3.637-1.628-3.637-3.637v-13.337
		c0-2.008,1.628-3.637,3.637-3.637h13.337c2.01,0,3.638,1.629,3.638,3.637V126.94z"/>
</g>
<g id="next_week" display="none">
	<path display="inline" d="M55.339,126.94c0,2.009-1.628,3.637-3.637,3.637H38.365c-2.009,0-3.638-1.628-3.638-3.637v-13.337
		c0-2.008,1.629-3.637,3.638-3.637h13.337c2.009,0,3.637,1.629,3.637,3.637V126.94z"/>
	<path display="inline" d="M81.426,126.94c0,2.009-1.628,3.637-3.637,3.637H64.451c-2.009,0-3.637-1.628-3.637-3.637v-13.337
		c0-2.008,1.628-3.637,3.637-3.637h13.337c2.009,0,3.637,1.629,3.637,3.637V126.94z"/>
	<path display="inline" d="M107.513,126.94c0,2.009-1.628,3.637-3.638,3.637H90.538c-2.009,0-3.637-1.628-3.637-3.637v-13.337
		c0-2.008,1.628-3.637,3.637-3.637h13.337c2.01,0,3.638,1.629,3.638,3.637V126.94z"/>
	<path display="inline" d="M133.6,126.94c0,2.009-1.629,3.637-3.638,3.637h-13.337c-2.009,0-3.638-1.628-3.638-3.637v-13.337
		c0-2.008,1.629-3.637,3.638-3.637h13.337c2.009,0,3.638,1.629,3.638,3.637V126.94z"/>
	<path display="inline" d="M159.004,126.94c0,2.009-1.629,3.637-3.638,3.637H142.03c-2.009,0-3.638-1.628-3.638-3.637v-13.337
		c0-2.008,1.629-3.637,3.638-3.637h13.337c2.009,0,3.638,1.629,3.638,3.637V126.94z"/>
	<g id="Layer_7" display="inline">
		<path fill="#FFFFFF" d="M161.231,151.189c0,0.452,0.217,0.818,0.484,0.818h42.544c0.267,0,0.484-0.366,0.484-0.818V88.588
			c0-0.452-0.217-0.818-0.484-0.818h-42.544c-0.267,0-0.484,0.366-0.484,0.818V151.189z"/>
		<path fill="#FFFFFF" d="M243.511,120.38c0,5.834-4.727,10.554-10.557,10.554H154.42c-5.829,0-10.556-4.72-10.556-10.554v-0.638
			c0-5.835,4.727-10.557,10.556-10.557h78.534c5.83,0,10.557,4.722,10.557,10.557V120.38z"/>
		<path d="M198.744,120.233c0,3.168-2.567,5.731-5.732,5.731h-35.647c-3.166,0-5.732-2.563-5.732-5.731v-0.347
			c0-3.169,2.567-5.733,5.732-5.733h35.647c3.166,0,5.732,2.564,5.732,5.733V120.233z"/>
		<path d="M196.819,124.286c-2.24,2.24-5.868,2.238-8.106,0l-22.41-22.409c-2.238-2.238-2.24-5.866,0-8.106l0.245-0.246
			c2.241-2.241,5.869-2.238,8.107,0l22.409,22.409c2.239,2.238,2.241,5.866,0,8.107L196.819,124.286z"/>
		<path d="M197.065,116.079c2.24,2.24,2.237,5.868-0.001,8.106l-22.409,22.409c-2.239,2.239-5.866,2.241-8.106,0l-0.246-0.245
			c-2.24-2.24-2.238-5.869,0-8.107l22.41-22.409c2.238-2.238,5.866-2.241,8.107,0L197.065,116.079z"/>
	</g>
</g>
<g id="next_week_final">
	<path d="M55.339,126.94c0,2.009-1.628,3.637-3.637,3.637H38.365c-2.009,0-3.638-1.628-3.638-3.637v-13.337
		c0-2.008,1.629-3.637,3.638-3.637h13.337c2.009,0,3.637,1.629,3.637,3.637V126.94z"/>
	<path d="M81.426,126.94c0,2.009-1.628,3.637-3.637,3.637H64.451c-2.009,0-3.637-1.628-3.637-3.637v-13.337
		c0-2.008,1.628-3.637,3.637-3.637h13.337c2.009,0,3.637,1.629,3.637,3.637V126.94z"/>
	<path d="M107.513,126.94c0,2.009-1.628,3.637-3.638,3.637H90.538c-2.009,0-3.637-1.628-3.637-3.637v-13.337
		c0-2.008,1.628-3.637,3.637-3.637h13.337c2.01,0,3.638,1.629,3.638,3.637V126.94z"/>
	<path d="M133.6,126.94c0,2.009-1.629,3.637-3.638,3.637h-13.337c-2.009,0-3.638-1.628-3.638-3.637v-13.337
		c0-2.008,1.629-3.637,3.638-3.637h13.337c2.009,0,3.638,1.629,3.638,3.637V126.94z"/>
	<g id="cal_base_copy_2">
		<path d="M59.846,51.543c0,2.656-2.154,4.808-4.811,4.808h0.513c-2.655,0-4.809-2.152-4.809-4.808V13.858
			c0-2.656,2.154-4.808,4.809-4.808h-0.513c2.657,0,4.811,2.152,4.811,4.808V51.543z"/>
		<path d="M142.945,51.543c0,2.656-2.153,4.808-4.811,4.808h0.513c-2.655,0-4.809-2.152-4.809-4.808V13.858
			c0-2.656,2.154-4.808,4.809-4.808h-0.513c2.657,0,4.811,2.152,4.811,4.808V51.543z"/>
		<circle cx="55.292" cy="52.247" r="9.591"/>
		<circle cx="138.392" cy="52.247" r="9.591"/>
		<polyline points="22.639,76.228 171.565,76.228 171.565,66.228 22.639,66.228 		"/>
	</g>
	<g id="Layer_7_copy_2">
		<g>
			<path fill="none" d="M165.303,37.707c-0.795-0.788-1.84-1.259-3.045-1.262H31.946c-1.205,0.002-2.25,0.474-3.046,1.262
				c-0.788,0.795-1.259,1.841-1.262,3.046v120.947c0.002,1.206,0.475,2.251,1.262,3.046c0.795,0.788,1.841,1.259,3.046,1.262
				h130.312c1.206-0.002,2.25-0.474,3.045-1.262c0.787-0.795,1.259-1.841,1.262-3.046v-9.692h-4.849
				c-0.267,0-0.484-0.366-0.484-0.818v-20.255h-6.811c-0.928,0-1.823-0.132-2.681-0.356h-9.71c-2.009,0-3.638-1.628-3.638-3.637
				v-13.337c0-2.008,1.629-3.637,3.638-3.637h8.413c1.229-0.5,2.57-0.781,3.978-0.781h6.811V88.588c0-0.452,0.217-0.818,0.484-0.818
				h4.849V40.752C166.563,39.547,166.091,38.501,165.303,37.707z"/>
			<path d="M138.392,113.603v13.337c0,2.009,1.629,3.637,3.638,3.637h9.71c-4.529-1.187-7.875-5.292-7.875-10.198v-0.638
				c0-4.426,2.721-8.205,6.578-9.776h-8.413C140.021,109.966,138.392,111.595,138.392,113.603z"/>
			<path d="M166.565,161.699c-0.002,1.206-0.475,2.251-1.262,3.046c-0.795,0.788-1.84,1.259-3.045,1.262H31.946
				c-1.205-0.002-2.25-0.474-3.046-1.262c-0.787-0.795-1.259-1.841-1.262-3.046V40.752c0.002-1.205,0.474-2.25,1.262-3.046
				c0.795-0.788,1.841-1.259,3.046-1.262h130.312c1.206,0.002,2.25,0.474,3.045,1.262c0.788,0.795,1.259,1.84,1.262,3.046V87.77h10
				V40.752c0.002-3.935-1.609-7.543-4.19-10.117c-2.573-2.582-6.182-4.193-10.117-4.191H31.946
				c-3.935-0.002-7.543,1.609-10.117,4.191c-2.582,2.573-4.193,6.182-4.191,10.117v120.947c-0.002,3.935,1.609,7.544,4.19,10.117
				c2.574,2.582,6.182,4.193,10.117,4.191h130.312c3.935,0.002,7.544-1.609,10.117-4.191c2.581-2.574,4.192-6.182,4.19-10.117
				v-9.692h-10V161.699z"/>
		</g>
		<path d="M198.744,120.233c0,3.168-2.567,5.731-5.732,5.731h-35.647c-3.166,0-5.732-2.563-5.732-5.731v-0.347
			c0-3.169,2.567-5.733,5.732-5.733h35.647c3.166,0,5.732,2.564,5.732,5.733V120.233z"/>
		<path d="M196.819,124.286c-2.24,2.24-5.868,2.238-8.106,0l-22.41-22.409c-2.238-2.238-2.24-5.866,0-8.106l0.245-0.246
			c2.241-2.241,5.869-2.238,8.107,0l22.409,22.409c2.239,2.238,2.241,5.866,0,8.107L196.819,124.286z"/>
		<path d="M197.065,116.079c2.24,2.24,2.237,5.868-0.001,8.106l-22.409,22.409c-2.239,2.239-5.866,2.241-8.106,0l-0.246-0.245
			c-2.24-2.24-2.238-5.869,0-8.107l22.41-22.409c2.238-2.238,5.866-2.241,8.107,0L197.065,116.079z"/>
	</g>
</g>
<g id="day_template" display="none">
	<rect x="46.883" y="92.496" display="inline" fill="none" width="98.995" height="88.496"/>
	<text transform="matrix(1 0 0 1 74.1343 149.9346)" display="inline" font-family="'Helvetica-Bold'" font-size="80">1</text>
</g>
<g id="day_final" display="none">
	<g display="inline">
		<path d="M93.314,149.935h5.625h5.586V92.981h-9.18c-1.433,3.203-3.542,5.664-6.328,7.383c-2.761,1.719-5.886,2.487-9.375,2.305
			v8.008h13.672V149.935z"/>
	</g>
</g>
<g id="tomorrow_template" display="none">
	<rect x="46.883" y="92.496" display="inline" fill="none" width="98.995" height="88.496"/>
	<text transform="matrix(1 0 0 1 74.1343 149.9346)" display="inline" font-family="'Helvetica-Bold'" font-size="80">1</text>
	<g id="next_arrow_copy" display="inline">
		<path fill="#FFFFFF" d="M114.898,152.189c0,0.452,0.448,0.818,1,0.818h87.846c0.552,0,1-0.366,1-0.818V89.588
			c0-0.452-0.448-0.818-1-0.818h-87.846c-0.552,0-1,0.366-1,0.818V152.189z"/>
		<path d="M198.744,121.233c0,3.168-2.567,5.731-5.732,5.731h-62.647c-3.166,0-5.732-2.563-5.732-5.731v-0.347
			c0-3.169,2.567-5.733,5.732-5.733h62.647c3.166,0,5.732,2.564,5.732,5.733V121.233z"/>
		<path d="M196.819,125.286c-2.24,2.24-5.868,2.238-8.106,0l-22.41-22.409c-2.238-2.238-2.24-5.866,0-8.106l0.245-0.246
			c2.241-2.241,5.869-2.238,8.107,0l22.409,22.409c2.239,2.238,2.241,5.866,0,8.107L196.819,125.286z"/>
		<path d="M197.065,117.079c2.24,2.24,2.237,5.868-0.001,8.106l-22.409,22.409c-2.239,2.239-5.866,2.241-8.106,0l-0.246-0.245
			c-2.24-2.24-2.238-5.869,0-8.107l22.41-22.409c2.238-2.238,5.866-2.241,8.107,0L197.065,117.079z"/>
	</g>
</g>
<g id="tomorrow_copy" display="none">
	<g id="cal_base_copy" display="inline">
		<path d="M59.846,51.543c0,2.656-2.154,4.808-4.811,4.808h0.513c-2.655,0-4.809-2.152-4.809-4.808V13.858
			c0-2.656,2.154-4.808,4.809-4.808h-0.513c2.657,0,4.811,2.152,4.811,4.808V51.543z"/>
		<path d="M142.945,51.543c0,2.656-2.153,4.808-4.811,4.808h0.513c-2.655,0-4.809-2.152-4.809-4.808V13.858
			c0-2.656,2.154-4.808,4.809-4.808h-0.513c2.657,0,4.811,2.152,4.811,4.808V51.543z"/>
		<circle cx="55.292" cy="52.247" r="9.591"/>
		<circle cx="138.392" cy="52.247" r="9.591"/>
		<polyline points="22.639,76.228 171.565,76.228 171.565,66.228 22.639,66.228 		"/>
	</g>
	<g display="inline">
		<path d="M93.314,149.935h5.625h5.586V92.981h-9.18c-1.433,3.203-3.542,5.664-6.328,7.383c-2.761,1.719-5.886,2.487-9.375,2.305
			v8.008h13.672V149.935z"/>
	</g>
	<g id="next_arrow_copy_2" display="inline">
		<g>
			<path fill="none" d="M165.303,37.707c-0.795-0.788-1.84-1.259-3.045-1.262H31.946c-1.205,0.002-2.25,0.474-3.046,1.262
				c-0.788,0.795-1.259,1.841-1.262,3.046v120.947c0.002,1.206,0.475,2.251,1.262,3.046c0.795,0.788,1.841,1.259,3.046,1.262
				h130.312c1.206-0.002,2.25-0.474,3.045-1.262c0.787-0.795,1.259-1.841,1.262-3.046v-8.692h-50.667c-0.552,0-1-0.366-1-0.818
				V89.588c0-0.452,0.448-0.818,1-0.818h50.667V40.752C166.563,39.547,166.091,38.501,165.303,37.707z"/>
			<path d="M166.565,161.699c-0.002,1.206-0.475,2.251-1.262,3.046c-0.795,0.788-1.84,1.259-3.045,1.262H31.946
				c-1.205-0.002-2.25-0.474-3.046-1.262c-0.787-0.795-1.259-1.841-1.262-3.046V40.752c0.002-1.205,0.474-2.25,1.262-3.046
				c0.795-0.788,1.841-1.259,3.046-1.262h130.312c1.206,0.002,2.25,0.474,3.045,1.262c0.788,0.795,1.259,1.84,1.262,3.046V88.77h10
				V40.752c0.002-3.935-1.609-7.543-4.19-10.117c-2.573-2.582-6.182-4.193-10.117-4.191H31.946
				c-3.935-0.002-7.543,1.609-10.117,4.191c-2.582,2.573-4.193,6.182-4.191,10.117v120.947c-0.002,3.935,1.609,7.544,4.19,10.117
				c2.574,2.582,6.182,4.193,10.117,4.191h130.312c3.935,0.002,7.544-1.609,10.117-4.191c2.581-2.574,4.192-6.182,4.19-10.117
				v-8.692h-10V161.699z"/>
		</g>
		<path d="M198.744,121.233c0,3.168-2.567,5.731-5.732,5.731h-62.647c-3.166,0-5.732-2.563-5.732-5.731v-0.347
			c0-3.169,2.567-5.733,5.732-5.733h62.647c3.166,0,5.732,2.564,5.732,5.733V121.233z"/>
		<path d="M196.819,125.286c-2.24,2.24-5.868,2.238-8.106,0l-22.41-22.409c-2.238-2.238-2.24-5.866,0-8.106l0.245-0.246
			c2.241-2.241,5.869-2.238,8.107,0l22.409,22.409c2.239,2.238,2.241,5.866,0,8.107L196.819,125.286z"/>
		<path d="M197.065,117.079c2.24,2.24,2.237,5.868-0.001,8.106l-22.409,22.409c-2.239,2.239-5.866,2.241-8.106,0l-0.246-0.245
			c-2.24-2.24-2.238-5.869,0-8.107l22.41-22.409c2.238-2.238,5.866-2.241,8.107,0L197.065,117.079z"/>
	</g>
</g>
<g id="year" display="none">
	<g display="inline">
		<path d="M136.945,115.444v-5.662l2.538-2.478h8.08l2.595,2.478v5.603l-2.595,2.596h-8.08L136.945,115.444z M134.468,141.515
			h18.168l6.605-6.606v-28.077l-6.605-6.606h-18.168l-6.605,6.606v11.561l6.605,6.606h13.39v5.957l-1.297,1.298h-6.017l-1.356-1.357
			v-2.713h-11.325v6.725L134.468,141.515z M105.329,140.512v-7.314h5.191v-19.76h-5.191v-5.368l6.843-6.842h7.726v31.969h4.13v7.314
			H105.329z M82.089,133.198h6.488l2.065-2.064v-20.526l-2.065-2.064h-6.488l-2.065,2.064v20.526L82.089,133.198z M70.646,134.438
			v-27.134l6.076-6.075h17.224l6.074,6.075v27.134l-6.074,6.075H76.721L70.646,134.438z M66.341,141.515v-10.676H53.247
			l13.095-13.095v-10.912l-6.605-6.606H41.568l-6.605,6.606v8.199h11.325v-4.128l1.356-1.357h5.958l1.356,1.357v2.654
			l-19.995,18.344v9.614H66.341z"/>
	</g>
</g>
</svg>
