<?xml version="1.0" encoding="utf-8"?>
<!-- Generator: Adobe Illustrator 15.1.0, SVG Export Plug-In  -->
<!DOCTYPE svg PUBLIC "-//W3C//DTD SVG 1.1//EN" "http://www.w3.org/Graphics/SVG/1.1/DTD/svg11.dtd" [
	<!ENTITY ns_flows "http://ns.adobe.com/Flows/1.0/">
]>
<svg version="1.1"
	 xmlns="http://www.w3.org/2000/svg" xmlns:xlink="http://www.w3.org/1999/xlink" xmlns:a="http://ns.adobe.com/AdobeSVGViewerExtensions/3.0/"
	 x="0px" y="0px" width="193px" height="193px" viewBox="-15.809 -9.051 193 193" enable-background="new -15.809 -9.051 193 193"
	 xml:space="preserve">
<defs>
</defs>
<path display="none" fill="none" stroke="#000000" stroke-width="10" stroke-miterlimit="10" d="M155.756,152.648
	c0,5.141-4.167,9.308-9.307,9.308H16.138c-5.14,0-9.308-4.167-9.308-9.308V31.702c0-5.14,4.167-9.308,9.308-9.308h130.312
	c5.141,0,9.307,4.167,9.307,9.308V152.648z"/>
<path display="none" d="M44.037,42.493c0,2.656-2.154,4.808-4.811,4.808h0.513c-2.655,0-4.809-2.152-4.809-4.808V4.808
	C34.93,2.152,37.084,0,39.739,0h-0.513c2.657,0,4.811,2.152,4.811,4.808V42.493z"/>
<path display="none" d="M127.137,42.493c0,2.656-2.153,4.808-4.811,4.808h0.513c-2.655,0-4.809-2.152-4.809-4.808V4.808
	c0-2.656,2.154-4.808,4.809-4.808h-0.513c2.657,0,4.811,2.152,4.811,4.808V42.493z"/>
<circle display="none" cx="39.484" cy="43.196" r="9.591"/>
<circle display="none" cx="122.584" cy="43.196" r="9.591"/>
<line display="none" fill="none" stroke="#000000" stroke-width="10" stroke-miterlimit="10" x1="6.83" y1="62.177" x2="155.756" y2="62.177"/>
<path display="none" d="M44.037,42.493c0,2.656-2.154,4.808-4.811,4.808h0.513c-2.655,0-4.809-2.152-4.809-4.808V4.808
	C34.93,2.152,37.084,0,39.739,0h-0.513c2.657,0,4.811,2.152,4.811,4.808V42.493z"/>
<path display="none" d="M127.137,42.493c0,2.656-2.153,4.808-4.811,4.808h0.513c-2.655,0-4.809-2.152-4.809-4.808V4.808
	c0-2.656,2.154-4.808,4.809-4.808h-0.513c2.657,0,4.811,2.152,4.811,4.808V42.493z"/>
<circle display="none" cx="39.484" cy="43.196" r="9.591"/>
<circle display="none" cx="122.584" cy="43.196" r="9.591"/>
<path display="none" d="M155.756,152.648h-5c-0.002,1.206-0.475,2.251-1.262,3.046c-0.795,0.788-1.84,1.259-3.045,1.262H16.138
	c-1.205-0.002-2.25-0.474-3.046-1.262c-0.787-0.795-1.259-1.841-1.262-3.046V31.702c0.002-1.205,0.474-2.25,1.262-3.046
	c0.795-0.788,1.841-1.259,3.046-1.262h130.312c1.206,0.002,2.25,0.474,3.045,1.262c0.788,0.795,1.259,1.84,1.262,3.046v120.947
	H155.756h5V31.702c0.002-3.935-1.609-7.543-4.19-10.117c-2.573-2.582-6.182-4.193-10.117-4.191H16.138
	c-3.935-0.002-7.543,1.609-10.117,4.191c-2.582,2.573-4.193,6.182-4.191,10.117v120.947c-0.002,3.935,1.609,7.544,4.19,10.117
	c2.574,2.582,6.182,4.193,10.117,4.191h130.312c3.935,0.002,7.544-1.609,10.117-4.191c2.581-2.574,4.192-6.182,4.19-10.117H155.756z
	"/>
<polyline display="none" points="6.83,67.177 155.756,67.177 155.756,57.177 6.83,57.177 "/>
<path display="none" d="M39.53,91.487c0,2.009-1.628,3.638-3.637,3.638H22.556c-2.009,0-3.638-1.629-3.638-3.638V78.15
	c0-2.009,1.629-3.638,3.638-3.638h13.337c2.009,0,3.637,1.629,3.637,3.638V91.487z"/>
<path display="none" d="M65.617,91.487c0,2.009-1.628,3.638-3.637,3.638H48.643c-2.009,0-3.637-1.629-3.637-3.638V78.15
	c0-2.009,1.628-3.638,3.637-3.638H61.98c2.009,0,3.637,1.629,3.637,3.638V91.487z"/>
<path display="none" d="M91.705,91.487c0,2.009-1.628,3.638-3.638,3.638H74.729c-2.009,0-3.637-1.629-3.637-3.638V78.15
	c0-2.009,1.628-3.638,3.637-3.638h13.337c2.01,0,3.638,1.629,3.638,3.638V91.487z"/>
<path display="none" d="M117.791,91.487c0,2.009-1.629,3.638-3.638,3.638h-13.337c-2.009,0-3.638-1.629-3.638-3.638V78.15
	c0-2.009,1.629-3.638,3.638-3.638h13.337c2.009,0,3.638,1.629,3.638,3.638V91.487z"/>
<path display="none" d="M143.878,91.487c0,2.009-1.628,3.638-3.638,3.638h-13.337c-2.009,0-3.637-1.629-3.637-3.638V78.15
	c0-2.009,1.628-3.638,3.637-3.638h13.337c2.01,0,3.638,1.629,3.638,3.638V91.487z"/>
<path display="none" d="M39.53,117.89c0,2.009-1.628,3.637-3.637,3.637H22.556c-2.009,0-3.638-1.628-3.638-3.637v-13.337
	c0-2.008,1.629-3.637,3.638-3.637h13.337c2.009,0,3.637,1.629,3.637,3.637V117.89z"/>
<path display="none" d="M65.617,117.89c0,2.009-1.628,3.637-3.637,3.637H48.643c-2.009,0-3.637-1.628-3.637-3.637v-13.337
	c0-2.008,1.628-3.637,3.637-3.637H61.98c2.009,0,3.637,1.629,3.637,3.637V117.89z"/>
<path display="none" d="M91.705,117.89c0,2.009-1.628,3.637-3.638,3.637H74.729c-2.009,0-3.637-1.628-3.637-3.637v-13.337
	c0-2.008,1.628-3.637,3.637-3.637h13.337c2.01,0,3.638,1.629,3.638,3.637V117.89z"/>
<path display="none" d="M117.791,117.89c0,2.009-1.629,3.637-3.638,3.637h-13.337c-2.009,0-3.638-1.628-3.638-3.637v-13.337
	c0-2.008,1.629-3.637,3.638-3.637h13.337c2.009,0,3.638,1.629,3.638,3.637V117.89z"/>
<path display="none" d="M143.878,117.89c0,2.009-1.628,3.637-3.638,3.637h-13.337c-2.009,0-3.637-1.628-3.637-3.637v-13.337
	c0-2.008,1.628-3.637,3.637-3.637h13.337c2.01,0,3.638,1.629,3.638,3.637V117.89z"/>
<path display="none" d="M39.53,144.618c0,2.009-1.628,3.637-3.637,3.637H22.556c-2.009,0-3.638-1.628-3.638-3.637V131.28
	c0-2.009,1.629-3.637,3.638-3.637h13.337c2.009,0,3.637,1.628,3.637,3.637V144.618z"/>
<path display="none" d="M65.617,144.618c0,2.009-1.628,3.637-3.637,3.637H48.643c-2.009,0-3.637-1.628-3.637-3.637V131.28
	c0-2.009,1.628-3.637,3.637-3.637H61.98c2.009,0,3.637,1.628,3.637,3.637V144.618z"/>
<path display="none" d="M91.705,144.618c0,2.009-1.628,3.637-3.638,3.637H74.729c-2.009,0-3.637-1.628-3.637-3.637V131.28
	c0-2.009,1.628-3.637,3.637-3.637h13.337c2.01,0,3.638,1.628,3.638,3.637V144.618z"/>
<path display="none" d="M117.791,144.618c0,2.009-1.629,3.637-3.638,3.637h-13.337c-2.009,0-3.638-1.628-3.638-3.637V131.28
	c0-2.009,1.629-3.637,3.638-3.637h13.337c2.009,0,3.638,1.628,3.638,3.637V144.618z"/>
<path display="none" d="M143.878,144.618c0,2.009-1.628,3.637-3.638,3.637h-13.337c-2.009,0-3.637-1.628-3.637-3.637V131.28
	c0-2.009,1.628-3.637,3.637-3.637h13.337c2.01,0,3.638,1.628,3.638,3.637V144.618z"/>
<path display="none" fill="#FFFFFF" d="M99.089,143.138c0,0.452,0.448,0.818,1,0.818h87.846c0.552,0,1-0.366,1-0.818V80.538
	c0-0.452-0.448-0.818-1-0.818h-87.846c-0.552,0-1,0.366-1,0.818V143.138z"/>
<path display="none" d="M182.936,112.183c0,3.168-2.567,5.731-5.732,5.731h-62.647c-3.166,0-5.732-2.563-5.732-5.731v-0.347
	c0-3.169,2.567-5.733,5.732-5.733h62.647c3.166,0,5.732,2.564,5.732,5.733V112.183z"/>
<path display="none" d="M181.01,116.235c-2.24,2.24-5.868,2.238-8.106,0l-22.41-22.409c-2.238-2.238-2.24-5.866,0-8.106l0.245-0.246
	c2.241-2.241,5.869-2.238,8.107,0l22.409,22.409c2.239,2.238,2.241,5.866,0,8.107L181.01,116.235z"/>
<path display="none" d="M181.256,108.028c2.24,2.24,2.237,5.868-0.001,8.106l-22.409,22.409c-2.239,2.239-5.866,2.241-8.106,0
	l-0.246-0.245c-2.24-2.24-2.238-5.869,0-8.107l22.41-22.409c2.238-2.238,5.866-2.241,8.107,0L181.256,108.028z"/>
<path display="none" d="M65.617,91.487c0,2.009-1.628,3.638-3.637,3.638H48.643c-2.009,0-3.637-1.629-3.637-3.638V78.15
	c0-2.009,1.628-3.638,3.637-3.638H61.98c2.009,0,3.637,1.629,3.637,3.638V91.487z"/>
<path display="none" d="M91.705,91.487c0,2.009-1.628,3.638-3.638,3.638H74.729c-2.009,0-3.637-1.629-3.637-3.638V78.15
	c0-2.009,1.628-3.638,3.637-3.638h13.337c2.01,0,3.638,1.629,3.638,3.638V91.487z"/>
<path display="none" d="M117.791,91.487c0,2.009-1.629,3.638-3.638,3.638h-13.337c-2.009,0-3.638-1.629-3.638-3.638V78.15
	c0-2.009,1.629-3.638,3.638-3.638h13.337c2.009,0,3.638,1.629,3.638,3.638V91.487z"/>
<path display="none" d="M143.878,91.487c0,2.009-1.628,3.638-3.638,3.638h-13.337c-2.009,0-3.637-1.629-3.637-3.638V78.15
	c0-2.009,1.628-3.638,3.637-3.638h13.337c2.01,0,3.638,1.629,3.638,3.638V91.487z"/>
<path display="none" d="M39.53,117.89c0,2.009-1.628,3.637-3.637,3.637H22.556c-2.009,0-3.638-1.628-3.638-3.637v-13.337
	c0-2.008,1.629-3.637,3.638-3.637h13.337c2.009,0,3.637,1.629,3.637,3.637V117.89z"/>
<path display="none" d="M65.617,117.89c0,2.009-1.628,3.637-3.637,3.637H48.643c-2.009,0-3.637-1.628-3.637-3.637v-13.337
	c0-2.008,1.628-3.637,3.637-3.637H61.98c2.009,0,3.637,1.629,3.637,3.637V117.89z"/>
<path display="none" d="M91.705,117.89c0,2.009-1.628,3.637-3.638,3.637H74.729c-2.009,0-3.637-1.628-3.637-3.637v-13.337
	c0-2.008,1.628-3.637,3.637-3.637h13.337c2.01,0,3.638,1.629,3.638,3.637V117.89z"/>
<path display="none" d="M117.791,117.89c0,2.009-1.629,3.637-3.638,3.637h-13.337c-2.009,0-3.638-1.628-3.638-3.637v-13.337
	c0-2.008,1.629-3.637,3.638-3.637h13.337c2.009,0,3.638,1.629,3.638,3.637V117.89z"/>
<path display="none" d="M143.878,117.89c0,2.009-1.628,3.637-3.638,3.637h-13.337c-2.009,0-3.637-1.628-3.637-3.637v-13.337
	c0-2.008,1.628-3.637,3.637-3.637h13.337c2.01,0,3.638,1.629,3.638,3.637V117.89z"/>
<path display="none" d="M39.53,144.618c0,2.009-1.628,3.637-3.637,3.637H22.556c-2.009,0-3.638-1.628-3.638-3.637V131.28
	c0-2.009,1.629-3.637,3.638-3.637h13.337c2.009,0,3.637,1.628,3.637,3.637V144.618z"/>
<path display="none" d="M65.617,144.618c0,2.009-1.628,3.637-3.637,3.637H48.643c-2.009,0-3.637-1.628-3.637-3.637V131.28
	c0-2.009,1.628-3.637,3.637-3.637H61.98c2.009,0,3.637,1.628,3.637,3.637V144.618z"/>
<path display="none" d="M91.705,144.618c0,2.009-1.628,3.637-3.638,3.637H74.729c-2.009,0-3.637-1.628-3.637-3.637V131.28
	c0-2.009,1.628-3.637,3.637-3.637h13.337c2.01,0,3.638,1.628,3.638,3.637V144.618z"/>
<path display="none" d="M65.617,91.487c0,2.009-1.628,3.638-3.637,3.638H48.643c-2.009,0-3.637-1.629-3.637-3.638V78.15
	c0-2.009,1.628-3.638,3.637-3.638H61.98c2.009,0,3.637,1.629,3.637,3.638V91.487z"/>
<path display="none" d="M91.705,91.487c0,2.009-1.628,3.638-3.638,3.638H74.729c-2.009,0-3.637-1.629-3.637-3.638V78.15
	c0-2.009,1.628-3.638,3.637-3.638h13.337c2.01,0,3.638,1.629,3.638,3.638V91.487z"/>
<path display="none" d="M117.791,91.487c0,2.009-1.629,3.638-3.638,3.638h-13.337c-2.009,0-3.638-1.629-3.638-3.638V78.15
	c0-2.009,1.629-3.638,3.638-3.638h13.337c2.009,0,3.638,1.629,3.638,3.638V91.487z"/>
<path display="none" d="M143.878,91.487c0,2.009-1.628,3.638-3.638,3.638h-13.337c-2.009,0-3.637-1.629-3.637-3.638V78.15
	c0-2.009,1.628-3.638,3.637-3.638h13.337c2.01,0,3.638,1.629,3.638,3.638V91.487z"/>
<path display="none" d="M39.53,117.89c0,2.009-1.628,3.637-3.637,3.637H22.556c-2.009,0-3.638-1.628-3.638-3.637v-13.337
	c0-2.008,1.629-3.637,3.638-3.637h13.337c2.009,0,3.637,1.629,3.637,3.637V117.89z"/>
<path display="none" d="M65.617,117.89c0,2.009-1.628,3.637-3.637,3.637H48.643c-2.009,0-3.637-1.628-3.637-3.637v-13.337
	c0-2.008,1.628-3.637,3.637-3.637H61.98c2.009,0,3.637,1.629,3.637,3.637V117.89z"/>
<path display="none" d="M91.705,117.89c0,2.009-1.628,3.637-3.638,3.637H74.729c-2.009,0-3.637-1.628-3.637-3.637v-13.337
	c0-2.008,1.628-3.637,3.637-3.637h13.337c2.01,0,3.638,1.629,3.638,3.637V117.89z"/>
<path display="none" d="M117.791,144.618c0,2.009-1.629,3.637-3.638,3.637h-13.337c-2.009,0-3.638-1.628-3.638-3.637V131.28
	c0-2.008,1.629-3.637,3.638-3.637h13.337c2.009,0,3.638,1.629,3.638,3.637V144.618z"/>
<path display="none" d="M39.53,144.618c0,2.009-1.628,3.637-3.637,3.637H22.556c-2.009,0-3.638-1.628-3.638-3.637V131.28
	c0-2.009,1.629-3.637,3.638-3.637h13.337c2.009,0,3.637,1.628,3.637,3.637V144.618z"/>
<path display="none" d="M65.617,144.618c0,2.009-1.628,3.637-3.637,3.637H48.643c-2.009,0-3.637-1.628-3.637-3.637V131.28
	c0-2.009,1.628-3.637,3.637-3.637H61.98c2.009,0,3.637,1.628,3.637,3.637V144.618z"/>
<path display="none" d="M91.705,144.618c0,2.009-1.628,3.637-3.638,3.637H74.729c-2.009,0-3.637-1.628-3.637-3.637V131.28
	c0-2.009,1.628-3.637,3.637-3.637h13.337c2.01,0,3.638,1.628,3.638,3.637V144.618z"/>
<path display="none" d="M182.936,112.183c0,3.168-2.567,5.731-5.732,5.731h-68.647c-3.166,0-5.732-2.563-5.732-5.731v-0.347
	c0-3.169,2.567-5.733,5.732-5.733h68.647c3.166,0,5.732,2.564,5.732,5.733V112.183z"/>
<path display="none" d="M181.01,116.235c-2.24,2.24-5.868,2.238-8.106,0l-22.41-22.409c-2.238-2.238-2.24-5.866,0-8.106l0.245-0.246
	c2.241-2.241,5.869-2.238,8.107,0l22.409,22.409c2.239,2.238,2.241,5.866,0,8.107L181.01,116.235z"/>
<path display="none" d="M181.256,108.028c2.24,2.24,2.237,5.868-0.001,8.106l-22.409,22.409c-2.239,2.239-5.866,2.241-8.106,0
	l-0.246-0.245c-2.24-2.24-2.238-5.869,0-8.107l22.41-22.409c2.238-2.238,5.866-2.241,8.107,0L181.256,108.028z"/>
<path display="none" d="M44.037,42.493c0,2.656-2.154,4.808-4.811,4.808h0.513c-2.655,0-4.809-2.152-4.809-4.808V4.808
	C34.93,2.152,37.084,0,39.739,0h-0.513c2.657,0,4.811,2.152,4.811,4.808V42.493z"/>
<path display="none" d="M127.137,42.493c0,2.656-2.153,4.808-4.811,4.808h0.513c-2.655,0-4.809-2.152-4.809-4.808V4.808
	c0-2.656,2.154-4.808,4.809-4.808h-0.513c2.657,0,4.811,2.152,4.811,4.808V42.493z"/>
<circle display="none" cx="39.484" cy="43.196" r="9.591"/>
<circle display="none" cx="122.584" cy="43.196" r="9.591"/>
<polyline display="none" points="6.83,67.177 155.756,67.177 155.756,57.177 6.83,57.177 "/>
<path display="none" fill="none" d="M149.495,28.656c-0.795-0.788-1.84-1.259-3.045-1.262H16.138
	c-1.205,0.002-2.25,0.474-3.046,1.262c-0.788,0.795-1.259,1.841-1.262,3.046v120.947c0.002,1.206,0.475,2.251,1.262,3.046
	c0.795,0.788,1.841,1.259,3.046,1.262h130.312c1.206-0.002,2.25-0.474,3.045-1.262c0.787-0.795,1.259-1.841,1.262-3.046v-7.305
	h-3.822V79.719h3.822V31.702C150.754,30.496,150.282,29.451,149.495,28.656z"/>
<path display="none" d="M150.756,152.648c-0.002,1.206-0.475,2.251-1.262,3.046c-0.795,0.788-1.84,1.259-3.045,1.262H16.138
	c-1.205-0.002-2.25-0.474-3.046-1.262c-0.787-0.795-1.259-1.841-1.262-3.046V31.702c0.002-1.205,0.474-2.25,1.262-3.046
	c0.795-0.788,1.841-1.259,3.046-1.262h130.312c1.206,0.002,2.25,0.474,3.045,1.262c0.788,0.795,1.259,1.84,1.262,3.046v48.018h10
	V31.702c0.002-3.935-1.609-7.543-4.19-10.117c-2.573-2.582-6.182-4.193-10.117-4.191H16.138c-3.935-0.002-7.543,1.609-10.117,4.191
	c-2.582,2.573-4.193,6.182-4.191,10.117v120.947c-0.002,3.935,1.609,7.544,4.19,10.117c2.574,2.582,6.182,4.193,10.117,4.191
	h130.312c3.935,0.002,7.544-1.609,10.117-4.191c2.581-2.574,4.192-6.182,4.19-10.117v-7.305h-10V152.648z"/>
<path display="none" d="M39.53,117.89c0,2.009-1.628,3.637-3.637,3.637H22.556c-2.009,0-3.638-1.628-3.638-3.637v-13.337
	c0-2.008,1.629-3.637,3.638-3.637h13.337c2.009,0,3.637,1.629,3.637,3.637V117.89z"/>
<path display="none" d="M65.617,117.89c0,2.009-1.628,3.637-3.637,3.637H48.643c-2.009,0-3.637-1.628-3.637-3.637v-13.337
	c0-2.008,1.628-3.637,3.637-3.637H61.98c2.009,0,3.637,1.629,3.637,3.637V117.89z"/>
<path display="none" d="M91.705,117.89c0,2.009-1.628,3.637-3.638,3.637H74.729c-2.009,0-3.637-1.628-3.637-3.637v-13.337
	c0-2.008,1.628-3.637,3.637-3.637h13.337c2.01,0,3.638,1.629,3.638,3.637V117.89z"/>
<path display="none" d="M117.791,117.89c0,2.009-1.629,3.637-3.638,3.637h-13.337c-2.009,0-3.638-1.628-3.638-3.637v-13.337
	c0-2.008,1.629-3.637,3.638-3.637h13.337c2.009,0,3.638,1.629,3.638,3.637V117.89z"/>
<path display="none" d="M143.878,117.89c0,2.009-1.628,3.637-3.638,3.637h-13.337c-2.009,0-3.637-1.628-3.637-3.637v-13.337
	c0-2.008,1.628-3.637,3.637-3.637h13.337c2.01,0,3.638,1.629,3.638,3.637V117.89z"/>
<path display="none" d="M39.53,117.89c0,2.009-1.628,3.637-3.637,3.637H22.556c-2.009,0-3.638-1.628-3.638-3.637v-13.337
	c0-2.008,1.629-3.637,3.638-3.637h13.337c2.009,0,3.637,1.629,3.637,3.637V117.89z"/>
<path display="none" d="M65.617,117.89c0,2.009-1.628,3.637-3.637,3.637H48.643c-2.009,0-3.637-1.628-3.637-3.637v-13.337
	c0-2.008,1.628-3.637,3.637-3.637H61.98c2.009,0,3.637,1.629,3.637,3.637V117.89z"/>
<path display="none" d="M91.705,117.89c0,2.009-1.628,3.637-3.638,3.637H74.729c-2.009,0-3.637-1.628-3.637-3.637v-13.337
	c0-2.008,1.628-3.637,3.637-3.637h13.337c2.01,0,3.638,1.629,3.638,3.637V117.89z"/>
<path display="none" d="M117.791,117.89c0,2.009-1.629,3.637-3.638,3.637h-13.337c-2.009,0-3.638-1.628-3.638-3.637v-13.337
	c0-2.008,1.629-3.637,3.638-3.637h13.337c2.009,0,3.638,1.629,3.638,3.637V117.89z"/>
<path display="none" d="M143.196,117.89c0,2.009-1.629,3.637-3.638,3.637h-13.337c-2.009,0-3.638-1.628-3.638-3.637v-13.337
	c0-2.008,1.629-3.637,3.638-3.637h13.337c2.009,0,3.638,1.629,3.638,3.637V117.89z"/>
<path display="none" fill="#FFFFFF" d="M145.423,142.138c0,0.452,0.217,0.818,0.484,0.818h42.544c0.267,0,0.484-0.366,0.484-0.818
	V79.538c0-0.452-0.217-0.818-0.484-0.818h-42.544c-0.267,0-0.484,0.366-0.484,0.818V142.138z"/>
<path display="none" fill="#FFFFFF" d="M227.703,111.329c0,5.834-4.727,10.554-10.557,10.554h-78.534
	c-5.829,0-10.556-4.72-10.556-10.554v-0.638c0-5.835,4.727-10.557,10.556-10.557h78.534c5.83,0,10.557,4.722,10.557,10.557V111.329z
	"/>
<path display="none" d="M182.936,111.183c0,3.168-2.567,5.731-5.732,5.731h-35.647c-3.166,0-5.732-2.563-5.732-5.731v-0.347
	c0-3.169,2.567-5.733,5.732-5.733h35.647c3.166,0,5.732,2.564,5.732,5.733V111.183z"/>
<path display="none" d="M181.01,115.235c-2.24,2.24-5.868,2.238-8.106,0l-22.41-22.409c-2.238-2.238-2.24-5.866,0-8.106l0.245-0.246
	c2.241-2.241,5.869-2.238,8.107,0l22.409,22.409c2.239,2.238,2.241,5.866,0,8.107L181.01,115.235z"/>
<path display="none" d="M181.256,107.028c2.24,2.24,2.237,5.868-0.001,8.106l-22.409,22.409c-2.239,2.239-5.866,2.241-8.106,0
	l-0.246-0.245c-2.24-2.24-2.238-5.869,0-8.107l22.41-22.409c2.238-2.238,5.866-2.241,8.107,0L181.256,107.028z"/>
<path display="none" d="M39.53,117.89c0,2.009-1.628,3.637-3.637,3.637H22.556c-2.009,0-3.638-1.628-3.638-3.637v-13.337
	c0-2.008,1.629-3.637,3.638-3.637h13.337c2.009,0,3.637,1.629,3.637,3.637V117.89z"/>
<path display="none" d="M65.617,117.89c0,2.009-1.628,3.637-3.637,3.637H48.643c-2.009,0-3.637-1.628-3.637-3.637v-13.337
	c0-2.008,1.628-3.637,3.637-3.637H61.98c2.009,0,3.637,1.629,3.637,3.637V117.89z"/>
<path display="none" d="M91.705,117.89c0,2.009-1.628,3.637-3.638,3.637H74.729c-2.009,0-3.637-1.628-3.637-3.637v-13.337
	c0-2.008,1.628-3.637,3.637-3.637h13.337c2.01,0,3.638,1.629,3.638,3.637V117.89z"/>
<path display="none" d="M117.791,117.89c0,2.009-1.629,3.637-3.638,3.637h-13.337c-2.009,0-3.638-1.628-3.638-3.637v-13.337
	c0-2.008,1.629-3.637,3.638-3.637h13.337c2.009,0,3.638,1.629,3.638,3.637V117.89z"/>
<path display="none" d="M44.037,42.493c0,2.656-2.154,4.808-4.811,4.808h0.513c-2.655,0-4.809-2.152-4.809-4.808V4.808
	C34.93,2.152,37.084,0,39.739,0h-0.513c2.657,0,4.811,2.152,4.811,4.808V42.493z"/>
<path display="none" d="M127.137,42.493c0,2.656-2.153,4.808-4.811,4.808h0.513c-2.655,0-4.809-2.152-4.809-4.808V4.808
	c0-2.656,2.154-4.808,4.809-4.808h-0.513c2.657,0,4.811,2.152,4.811,4.808V42.493z"/>
<circle display="none" cx="39.484" cy="43.196" r="9.591"/>
<circle display="none" cx="122.584" cy="43.196" r="9.591"/>
<polyline display="none" points="6.83,67.177 155.756,67.177 155.756,57.177 6.83,57.177 "/>
<path display="none" fill="none" d="M149.495,28.656c-0.795-0.788-1.84-1.259-3.045-1.262H16.138
	c-1.205,0.002-2.25,0.474-3.046,1.262c-0.788,0.795-1.259,1.841-1.262,3.046v120.947c0.002,1.206,0.475,2.251,1.262,3.046
	c0.795,0.788,1.841,1.259,3.046,1.262h130.312c1.206-0.002,2.25-0.474,3.045-1.262c0.787-0.795,1.259-1.841,1.262-3.046v-9.692
	h-4.849c-0.267,0-0.484-0.366-0.484-0.818v-20.255h-6.811c-0.928,0-1.823-0.132-2.681-0.356h-9.71c-2.009,0-3.638-1.628-3.638-3.637
	v-13.337c0-2.008,1.629-3.637,3.638-3.637h8.413c1.229-0.5,2.57-0.781,3.978-0.781h6.811V79.538c0-0.452,0.217-0.818,0.484-0.818
	h4.849V31.702C150.754,30.496,150.282,29.451,149.495,28.656z"/>
<path display="none" d="M122.583,104.552v13.337c0,2.009,1.629,3.637,3.638,3.637h9.71c-4.529-1.187-7.875-5.292-7.875-10.198
	v-0.638c0-4.426,2.721-8.205,6.578-9.776h-8.413C124.212,100.915,122.583,102.544,122.583,104.552z"/>
<path display="none" d="M150.756,152.648c-0.002,1.206-0.475,2.251-1.262,3.046c-0.795,0.788-1.84,1.259-3.045,1.262H16.138
	c-1.205-0.002-2.25-0.474-3.046-1.262c-0.787-0.795-1.259-1.841-1.262-3.046V31.702c0.002-1.205,0.474-2.25,1.262-3.046
	c0.795-0.788,1.841-1.259,3.046-1.262h130.312c1.206,0.002,2.25,0.474,3.045,1.262c0.788,0.795,1.259,1.84,1.262,3.046v47.018h10
	V31.702c0.002-3.935-1.609-7.543-4.19-10.117c-2.573-2.582-6.182-4.193-10.117-4.191H16.138c-3.935-0.002-7.543,1.609-10.117,4.191
	c-2.582,2.573-4.193,6.182-4.191,10.117v120.947c-0.002,3.935,1.609,7.544,4.19,10.117c2.574,2.582,6.182,4.193,10.117,4.191
	h130.312c3.935,0.002,7.544-1.609,10.117-4.191c2.581-2.574,4.192-6.182,4.19-10.117v-9.692h-10V152.648z"/>
<path display="none" d="M182.936,111.183c0,3.168-2.567,5.731-5.732,5.731h-35.647c-3.166,0-5.732-2.563-5.732-5.731v-0.347
	c0-3.169,2.567-5.733,5.732-5.733h35.647c3.166,0,5.732,2.564,5.732,5.733V111.183z"/>
<path display="none" d="M181.01,115.235c-2.24,2.24-5.868,2.238-8.106,0l-22.41-22.409c-2.238-2.238-2.24-5.866,0-8.106l0.245-0.246
	c2.241-2.241,5.869-2.238,8.107,0l22.409,22.409c2.239,2.238,2.241,5.866,0,8.107L181.01,115.235z"/>
<path display="none" d="M181.256,107.028c2.24,2.24,2.237,5.868-0.001,8.106l-22.409,22.409c-2.239,2.239-5.866,2.241-8.106,0
	l-0.246-0.245c-2.24-2.24-2.238-5.869,0-8.107l22.41-22.409c2.238-2.238,5.866-2.241,8.107,0L181.256,107.028z"/>
<rect x="31.074" y="83.445" display="none" fill="none" width="98.995" height="88.496"/>
<text transform="matrix(1 0 0 1 58.3257 140.8838)" display="none" font-family="'Helvetica-Bold'" font-size="80">1</text>
<path display="none" d="M77.505,140.884h5.625h5.586V83.931h-9.18c-1.433,3.203-3.542,5.664-6.328,7.383
	c-2.761,1.719-5.886,2.487-9.375,2.305v8.008h13.672V140.884z"/>
<rect x="31.074" y="83.445" display="none" fill="none" width="98.995" height="88.496"/>
<text transform="matrix(1 0 0 1 58.3257 140.8838)" display="none" font-family="'Helvetica-Bold'" font-size="80">1</text>
<path display="none" fill="#FFFFFF" d="M99.089,143.138c0,0.452,0.448,0.818,1,0.818h87.846c0.552,0,1-0.366,1-0.818V80.538
	c0-0.452-0.448-0.818-1-0.818h-87.846c-0.552,0-1,0.366-1,0.818V143.138z"/>
<path display="none" d="M182.936,112.183c0,3.168-2.567,5.731-5.732,5.731h-62.647c-3.166,0-5.732-2.563-5.732-5.731v-0.347
	c0-3.169,2.567-5.733,5.732-5.733h62.647c3.166,0,5.732,2.564,5.732,5.733V112.183z"/>
<path display="none" d="M181.01,116.235c-2.24,2.24-5.868,2.238-8.106,0l-22.41-22.409c-2.238-2.238-2.24-5.866,0-8.106l0.245-0.246
	c2.241-2.241,5.869-2.238,8.107,0l22.409,22.409c2.239,2.238,2.241,5.866,0,8.107L181.01,116.235z"/>
<path display="none" d="M181.256,108.028c2.24,2.24,2.237,5.868-0.001,8.106l-22.409,22.409c-2.239,2.239-5.866,2.241-8.106,0
	l-0.246-0.245c-2.24-2.24-2.238-5.869,0-8.107l22.41-22.409c2.238-2.238,5.866-2.241,8.107,0L181.256,108.028z"/>
<path display="none" d="M44.037,42.493c0,2.656-2.154,4.808-4.811,4.808h0.513c-2.655,0-4.809-2.152-4.809-4.808V4.808
	C34.93,2.152,37.084,0,39.739,0h-0.513c2.657,0,4.811,2.152,4.811,4.808V42.493z"/>
<path display="none" d="M127.137,42.493c0,2.656-2.153,4.808-4.811,4.808h0.513c-2.655,0-4.809-2.152-4.809-4.808V4.808
	c0-2.656,2.154-4.808,4.809-4.808h-0.513c2.657,0,4.811,2.152,4.811,4.808V42.493z"/>
<circle display="none" cx="39.484" cy="43.196" r="9.591"/>
<circle display="none" cx="122.584" cy="43.196" r="9.591"/>
<polyline display="none" points="6.83,67.177 155.756,67.177 155.756,57.177 6.83,57.177 "/>
<path display="none" d="M77.505,140.884h5.625h5.586V83.931h-9.18c-1.433,3.203-3.542,5.664-6.328,7.383
	c-2.761,1.719-5.886,2.487-9.375,2.305v8.008h13.672V140.884z"/>
<path display="none" fill="none" d="M149.495,28.656c-0.795-0.788-1.84-1.259-3.045-1.262H16.138
	c-1.205,0.002-2.25,0.474-3.046,1.262c-0.788,0.795-1.259,1.841-1.262,3.046v120.947c0.002,1.206,0.475,2.251,1.262,3.046
	c0.795,0.788,1.841,1.259,3.046,1.262h130.312c1.206-0.002,2.25-0.474,3.045-1.262c0.787-0.795,1.259-1.841,1.262-3.046v-8.692
	h-50.667c-0.552,0-1-0.366-1-0.818V80.538c0-0.452,0.448-0.818,1-0.818h50.667V31.702C150.754,30.496,150.282,29.451,149.495,28.656
	z"/>
<path display="none" d="M150.756,152.648c-0.002,1.206-0.475,2.251-1.262,3.046c-0.795,0.788-1.84,1.259-3.045,1.262H16.138
	c-1.205-0.002-2.25-0.474-3.046-1.262c-0.787-0.795-1.259-1.841-1.262-3.046V31.702c0.002-1.205,0.474-2.25,1.262-3.046
	c0.795-0.788,1.841-1.259,3.046-1.262h130.312c1.206,0.002,2.25,0.474,3.045,1.262c0.788,0.795,1.259,1.84,1.262,3.046v48.018h10
	V31.702c0.002-3.935-1.609-7.543-4.19-10.117c-2.573-2.582-6.182-4.193-10.117-4.191H16.138c-3.935-0.002-7.543,1.609-10.117,4.191
	c-2.582,2.573-4.193,6.182-4.191,10.117v120.947c-0.002,3.935,1.609,7.544,4.19,10.117c2.574,2.582,6.182,4.193,10.117,4.191
	h130.312c3.935,0.002,7.544-1.609,10.117-4.191c2.581-2.574,4.192-6.182,4.19-10.117v-8.692h-10V152.648z"/>
<path display="none" d="M182.936,112.183c0,3.168-2.567,5.731-5.732,5.731h-62.647c-3.166,0-5.732-2.563-5.732-5.731v-0.347
	c0-3.169,2.567-5.733,5.732-5.733h62.647c3.166,0,5.732,2.564,5.732,5.733V112.183z"/>
<path display="none" d="M181.01,116.235c-2.24,2.24-5.868,2.238-8.106,0l-22.41-22.409c-2.238-2.238-2.24-5.866,0-8.106l0.245-0.246
	c2.241-2.241,5.869-2.238,8.107,0l22.409,22.409c2.239,2.238,2.241,5.866,0,8.107L181.01,116.235z"/>
<path display="none" d="M181.256,108.028c2.24,2.24,2.237,5.868-0.001,8.106l-22.409,22.409c-2.239,2.239-5.866,2.241-8.106,0
	l-0.246-0.245c-2.24-2.24-2.238-5.869,0-8.107l22.41-22.409c2.238-2.238,5.866-2.241,8.107,0L181.256,108.028z"/>
<path display="none" d="M121.137,106.393v-5.662l2.538-2.478h8.08l2.595,2.478v5.603l-2.595,2.596h-8.08L121.137,106.393z
	 M118.66,132.464h18.168l6.605-6.606V97.782l-6.605-6.606H118.66l-6.605,6.606v11.561l6.605,6.606h13.39v5.957l-1.297,1.298h-6.017
	l-1.356-1.357v-2.713h-11.325v6.725L118.66,132.464z M89.521,131.461v-7.314h5.191v-19.76h-5.191V99.02l6.843-6.842h7.726v31.969
	h4.13v7.314H89.521z M66.281,124.147h6.488l2.065-2.064v-20.526l-2.065-2.064h-6.488l-2.065,2.064v20.526L66.281,124.147z
	 M54.837,125.387V98.253l6.076-6.075h17.224l6.074,6.075v27.134l-6.074,6.075H60.913L54.837,125.387z M50.533,132.464v-10.676
	H37.438l13.095-13.095V97.782l-6.605-6.606H25.759l-6.605,6.606v8.199h11.325v-4.128l1.356-1.357h5.958l1.356,1.357v2.654
	L19.154,122.85v9.614H50.533z"/>
<path display="none" d="M65.64,143.874c-4.227-3.799-5.016-9.801-1.771-13.411l46.275-53.492c3.244-3.61,9.294-3.462,13.521,0.337
	l0.463,0.416c4.228,3.8,5.018,9.803,1.773,13.412l-46.274,53.492c-3.245,3.609-9.296,3.462-13.525-0.339L65.64,143.874z"/>
<path display="none" d="M79.854,143.878c-3.998,4.04-10.506,4.066-14.544,0.072l-22.462-22.057
	c-4.037-3.997-4.073-10.504-0.074-14.543l0.437-0.441c3.999-4.04,10.509-4.069,14.544-0.075l22.464,22.06
	c4.036,3.996,4.074,10.503,0.074,14.543L79.854,143.878z"/>
<path display="none" d="M81.663,149.409c-5.495-0.115-9.855-4.319-9.747-9.389l0.268-73.876c0.107-5.068,4.641-9.083,10.137-8.965
	l0.601,0.012c5.496,0.117,9.857,4.321,9.75,9.39l-0.267,73.877c-0.109,5.068-4.643,9.084-10.14,8.967L81.663,149.409z"/>
<path display="none" d="M129.325,103.951c-0.115,5.495-4.402,9.853-9.573,9.743l-75.355-0.299c-5.17-0.109-9.267-4.645-9.149-10.141
	l0.012-0.601c0.117-5.496,4.404-9.855,9.574-9.746l75.355,0.298c5.169,0.111,9.268,4.646,9.151,10.144L129.325,103.951z"/>
<path d="M156.566,21.585c-2.573-2.582-6.182-4.193-10.117-4.191h-19.313V4.808c0-2.568-2.019-4.646-4.554-4.782
	c-2.534,0.136-4.553,2.214-4.553,4.782v12.586H44.037V4.808c0-2.568-2.019-4.646-4.554-4.782C36.949,0.162,34.93,2.24,34.93,4.808
	v12.586H16.138c-3.935-0.002-7.543,1.609-10.117,4.191c-2.582,2.573-4.193,6.182-4.191,10.117v120.947
	c-0.002,3.935,1.609,7.544,4.19,10.117c2.574,2.582,6.182,4.193,10.117,4.191h130.312c3.935,0.002,7.544-1.609,10.117-4.191
	c2.581-2.574,4.192-6.182,4.19-10.117V31.702C160.759,27.767,159.147,24.159,156.566,21.585z M150.756,57.177H99.748v10h51.008
	v85.472c-0.002,1.206-0.475,2.251-1.262,3.046c-0.795,0.788-1.84,1.259-3.045,1.262H16.138c-1.205-0.002-2.25-0.474-3.046-1.262
	c-0.787-0.795-1.259-1.841-1.262-3.046V67.177h53.009v-10H11.83V31.702c0.002-1.205,0.474-2.25,1.262-3.046
	c0.795-0.788,1.841-1.259,3.046-1.262H34.93v7.36c-2.999,1.621-5.037,4.793-5.037,8.441c0,5.296,4.294,9.59,9.59,9.59
	c5.297,0,9.591-4.294,9.591-9.59c0-3.648-2.038-6.82-5.037-8.441v-7.36h73.993v7.36c-2.999,1.621-5.037,4.793-5.037,8.441
	c0,5.296,4.294,9.59,9.59,9.59c5.297,0,9.591-4.294,9.591-9.59c0-3.648-2.038-6.82-5.038-8.441v-7.36h19.313
	c1.206,0.002,2.25,0.474,3.045,1.262c0.788,0.795,1.259,1.84,1.262,3.046V57.177z"/>
<path d="M92.67,65.58c0.108-5.068-4.254-9.273-9.75-9.39l-0.601-0.012c-5.496-0.117-10.029,3.897-10.137,8.965l-0.098,26.873
	l-27.252-0.108c-5.17-0.11-9.457,4.25-9.574,9.746l-0.012,0.601c-0.117,5.496,3.979,10.031,9.149,10.141l27.615,0.11l-0.096,26.515
	c-0.108,5.07,4.252,9.274,9.747,9.389l0.601,0.015c5.498,0.117,10.031-3.899,10.14-8.967l0.097-26.871l27.251,0.108
	c5.171,0.11,9.458-4.248,9.573-9.743l0.015-0.601c0.117-5.498-3.981-10.033-9.151-10.144l-27.614-0.109L92.67,65.58z"/>
<path display="none" d="M162.732,43.424c0,2.836-2.299,5.135-5.134,5.135H5.134C2.299,48.559,0,46.26,0,43.424V31.748
	c0-2.835,2.299-5.134,5.134-5.134h152.464c2.835,0,5.134,2.299,5.134,5.134V43.424z"/>
<path display="none" d="M162.732,81.404c0,2.836-2.299,5.135-5.134,5.135H48.293c-2.835,0-5.134-2.299-5.134-5.135V69.727
	c0-2.835,2.299-5.134,5.134-5.134h109.305c2.835,0,5.134,2.299,5.134,5.134V81.404z"/>
<path display="none" d="M162.732,119.384c0,2.836-2.299,5.135-5.134,5.135H48.293c-2.835,0-5.134-2.299-5.134-5.135v-11.677
	c0-2.836,2.299-5.135,5.134-5.135h109.305c2.835,0,5.134,2.299,5.134,5.135V119.384z"/>
<path display="none" d="M162.732,157.363c0,2.836-2.299,5.135-5.134,5.135H48.293c-2.835,0-5.134-2.299-5.134-5.135v-11.677
	c0-2.835,2.299-5.134,5.134-5.134h109.305c2.835,0,5.134,2.299,5.134,5.134V157.363z"/>
</svg>
