<?xml version="1.0" encoding="utf-8"?>
<!-- Generator: Adobe Illustrator 15.1.0, SVG Export Plug-In  -->
<!DOCTYPE svg PUBLIC "-//W3C//DTD SVG 1.0//EN" "http://www.w3.org/TR/2001/REC-SVG-20010904/DTD/svg10.dtd" [
	<!ENTITY ns_flows "http://ns.adobe.com/Flows/1.0/">
]>
<svg version="1.0"
	 xmlns="http://www.w3.org/2000/svg" xmlns:xlink="http://www.w3.org/1999/xlink" xmlns:a="http://ns.adobe.com/AdobeSVGViewerExtensions/3.0/"
	 x="0px" y="0px" width="193px" height="193px" viewBox="-15.398 -9.051 193 193" enable-background="new -15.398 -9.051 193 193"
	 xml:space="preserve">
<defs>
</defs>
<path display="none" fill="none" stroke="#000000" stroke-width="10" stroke-miterlimit="10" d="M156.167,152.648
	c0,5.141-4.167,9.308-9.307,9.308H16.548c-5.14,0-9.308-4.167-9.308-9.308V31.702c0-5.14,4.167-9.308,9.308-9.308h130.312
	c5.141,0,9.307,4.167,9.307,9.308V152.648z"/>
<path display="none" d="M44.447,42.493c0,2.656-2.154,4.808-4.811,4.808h0.513c-2.655,0-4.809-2.152-4.809-4.808V4.808
	C35.34,2.152,37.494,0,40.149,0h-0.513c2.657,0,4.811,2.152,4.811,4.808V42.493z"/>
<path display="none" d="M127.547,42.493c0,2.656-2.153,4.808-4.811,4.808h0.513c-2.655,0-4.809-2.152-4.809-4.808V4.808
	c0-2.656,2.154-4.808,4.809-4.808h-0.513c2.657,0,4.811,2.152,4.811,4.808V42.493z"/>
<circle display="none" cx="39.894" cy="43.196" r="9.591"/>
<circle display="none" cx="122.994" cy="43.196" r="9.591"/>
<line display="none" fill="none" stroke="#000000" stroke-width="10" stroke-miterlimit="10" x1="7.24" y1="62.177" x2="156.167" y2="62.177"/>
<path display="none" d="M44.447,42.493c0,2.656-2.154,4.808-4.811,4.808h0.513c-2.655,0-4.809-2.152-4.809-4.808V4.808
	C35.34,2.152,37.494,0,40.149,0h-0.513c2.657,0,4.811,2.152,4.811,4.808V42.493z"/>
<path display="none" d="M127.547,42.493c0,2.656-2.153,4.808-4.811,4.808h0.513c-2.655,0-4.809-2.152-4.809-4.808V4.808
	c0-2.656,2.154-4.808,4.809-4.808h-0.513c2.657,0,4.811,2.152,4.811,4.808V42.493z"/>
<circle display="none" cx="39.894" cy="43.196" r="9.591"/>
<circle display="none" cx="122.994" cy="43.196" r="9.591"/>
<path display="none" d="M156.167,152.648h-5c-0.002,1.206-0.475,2.251-1.262,3.046c-0.795,0.788-1.84,1.259-3.045,1.262H16.548
	c-1.205-0.002-2.25-0.474-3.046-1.262c-0.787-0.795-1.259-1.841-1.262-3.046V31.702c0.002-1.205,0.474-2.25,1.262-3.046
	c0.795-0.788,1.841-1.259,3.046-1.262h130.312c1.206,0.002,2.25,0.474,3.045,1.262c0.788,0.795,1.259,1.84,1.262,3.046v120.947
	H156.167h5V31.702c0.002-3.935-1.609-7.543-4.19-10.117c-2.573-2.582-6.182-4.193-10.117-4.191H16.548
	c-3.935-0.002-7.543,1.609-10.117,4.191C3.85,24.158,2.238,27.767,2.24,31.702v120.947c-0.002,3.935,1.609,7.544,4.19,10.117
	c2.574,2.582,6.182,4.193,10.117,4.191h130.312c3.935,0.002,7.544-1.609,10.117-4.191c2.581-2.574,4.192-6.182,4.19-10.117H156.167z
	"/>
<polyline display="none" points="7.24,67.177 156.167,67.177 156.167,57.177 7.24,57.177 "/>
<path display="none" d="M39.94,91.487c0,2.009-1.628,3.638-3.637,3.638H22.966c-2.009,0-3.638-1.629-3.638-3.638V78.15
	c0-2.009,1.629-3.638,3.638-3.638h13.337c2.009,0,3.637,1.629,3.637,3.638V91.487z"/>
<path display="none" d="M66.027,91.487c0,2.009-1.628,3.638-3.637,3.638H49.053c-2.009,0-3.637-1.629-3.637-3.638V78.15
	c0-2.009,1.628-3.638,3.637-3.638H62.39c2.009,0,3.637,1.629,3.637,3.638V91.487z"/>
<path display="none" d="M92.115,91.487c0,2.009-1.628,3.638-3.638,3.638H75.139c-2.009,0-3.637-1.629-3.637-3.638V78.15
	c0-2.009,1.628-3.638,3.637-3.638h13.337c2.01,0,3.638,1.629,3.638,3.638V91.487z"/>
<path display="none" d="M118.201,91.487c0,2.009-1.629,3.638-3.638,3.638h-13.337c-2.009,0-3.638-1.629-3.638-3.638V78.15
	c0-2.009,1.629-3.638,3.638-3.638h13.337c2.009,0,3.638,1.629,3.638,3.638V91.487z"/>
<path display="none" d="M144.288,91.487c0,2.009-1.628,3.638-3.638,3.638h-13.337c-2.009,0-3.637-1.629-3.637-3.638V78.15
	c0-2.009,1.628-3.638,3.637-3.638h13.337c2.01,0,3.638,1.629,3.638,3.638V91.487z"/>
<path display="none" d="M39.94,117.89c0,2.009-1.628,3.637-3.637,3.637H22.966c-2.009,0-3.638-1.628-3.638-3.637v-13.337
	c0-2.008,1.629-3.637,3.638-3.637h13.337c2.009,0,3.637,1.629,3.637,3.637V117.89z"/>
<path display="none" d="M66.027,117.89c0,2.009-1.628,3.637-3.637,3.637H49.053c-2.009,0-3.637-1.628-3.637-3.637v-13.337
	c0-2.008,1.628-3.637,3.637-3.637H62.39c2.009,0,3.637,1.629,3.637,3.637V117.89z"/>
<path display="none" d="M92.115,117.89c0,2.009-1.628,3.637-3.638,3.637H75.139c-2.009,0-3.637-1.628-3.637-3.637v-13.337
	c0-2.008,1.628-3.637,3.637-3.637h13.337c2.01,0,3.638,1.629,3.638,3.637V117.89z"/>
<path display="none" d="M118.201,117.89c0,2.009-1.629,3.637-3.638,3.637h-13.337c-2.009,0-3.638-1.628-3.638-3.637v-13.337
	c0-2.008,1.629-3.637,3.638-3.637h13.337c2.009,0,3.638,1.629,3.638,3.637V117.89z"/>
<path display="none" d="M144.288,117.89c0,2.009-1.628,3.637-3.638,3.637h-13.337c-2.009,0-3.637-1.628-3.637-3.637v-13.337
	c0-2.008,1.628-3.637,3.637-3.637h13.337c2.01,0,3.638,1.629,3.638,3.637V117.89z"/>
<path display="none" d="M39.94,144.618c0,2.009-1.628,3.637-3.637,3.637H22.966c-2.009,0-3.638-1.628-3.638-3.637V131.28
	c0-2.009,1.629-3.637,3.638-3.637h13.337c2.009,0,3.637,1.628,3.637,3.637V144.618z"/>
<path display="none" d="M66.027,144.618c0,2.009-1.628,3.637-3.637,3.637H49.053c-2.009,0-3.637-1.628-3.637-3.637V131.28
	c0-2.009,1.628-3.637,3.637-3.637H62.39c2.009,0,3.637,1.628,3.637,3.637V144.618z"/>
<path display="none" d="M92.115,144.618c0,2.009-1.628,3.637-3.638,3.637H75.139c-2.009,0-3.637-1.628-3.637-3.637V131.28
	c0-2.009,1.628-3.637,3.637-3.637h13.337c2.01,0,3.638,1.628,3.638,3.637V144.618z"/>
<path display="none" d="M118.201,144.618c0,2.009-1.629,3.637-3.638,3.637h-13.337c-2.009,0-3.638-1.628-3.638-3.637V131.28
	c0-2.009,1.629-3.637,3.638-3.637h13.337c2.009,0,3.638,1.628,3.638,3.637V144.618z"/>
<path display="none" d="M144.288,144.618c0,2.009-1.628,3.637-3.638,3.637h-13.337c-2.009,0-3.637-1.628-3.637-3.637V131.28
	c0-2.009,1.628-3.637,3.637-3.637h13.337c2.01,0,3.638,1.628,3.638,3.637V144.618z"/>
<path display="none" fill="#FFFFFF" d="M99.5,143.138c0,0.452,0.448,0.818,1,0.818h87.846c0.552,0,1-0.366,1-0.818V80.538
	c0-0.452-0.448-0.818-1-0.818H100.5c-0.552,0-1,0.366-1,0.818V143.138z"/>
<path display="none" d="M183.346,112.183c0,3.168-2.567,5.731-5.732,5.731h-62.647c-3.166,0-5.732-2.563-5.732-5.731v-0.347
	c0-3.169,2.567-5.733,5.732-5.733h62.647c3.166,0,5.732,2.564,5.732,5.733V112.183z"/>
<path display="none" d="M181.42,116.235c-2.24,2.24-5.868,2.238-8.106,0l-22.41-22.409c-2.238-2.238-2.24-5.866,0-8.106l0.245-0.246
	c2.241-2.241,5.869-2.238,8.107,0l22.409,22.409c2.239,2.238,2.241,5.866,0,8.107L181.42,116.235z"/>
<path display="none" d="M181.667,108.028c2.24,2.24,2.237,5.868-0.001,8.106l-22.409,22.409c-2.239,2.239-5.866,2.241-8.106,0
	l-0.246-0.245c-2.24-2.24-2.238-5.869,0-8.107l22.41-22.409c2.238-2.238,5.866-2.241,8.107,0L181.667,108.028z"/>
<path display="none" d="M66.027,91.487c0,2.009-1.628,3.638-3.637,3.638H49.053c-2.009,0-3.637-1.629-3.637-3.638V78.15
	c0-2.009,1.628-3.638,3.637-3.638H62.39c2.009,0,3.637,1.629,3.637,3.638V91.487z"/>
<path display="none" d="M92.115,91.487c0,2.009-1.628,3.638-3.638,3.638H75.139c-2.009,0-3.637-1.629-3.637-3.638V78.15
	c0-2.009,1.628-3.638,3.637-3.638h13.337c2.01,0,3.638,1.629,3.638,3.638V91.487z"/>
<path display="none" d="M118.201,91.487c0,2.009-1.629,3.638-3.638,3.638h-13.337c-2.009,0-3.638-1.629-3.638-3.638V78.15
	c0-2.009,1.629-3.638,3.638-3.638h13.337c2.009,0,3.638,1.629,3.638,3.638V91.487z"/>
<path display="none" d="M144.288,91.487c0,2.009-1.628,3.638-3.638,3.638h-13.337c-2.009,0-3.637-1.629-3.637-3.638V78.15
	c0-2.009,1.628-3.638,3.637-3.638h13.337c2.01,0,3.638,1.629,3.638,3.638V91.487z"/>
<path display="none" d="M39.94,117.89c0,2.009-1.628,3.637-3.637,3.637H22.966c-2.009,0-3.638-1.628-3.638-3.637v-13.337
	c0-2.008,1.629-3.637,3.638-3.637h13.337c2.009,0,3.637,1.629,3.637,3.637V117.89z"/>
<path display="none" d="M66.027,117.89c0,2.009-1.628,3.637-3.637,3.637H49.053c-2.009,0-3.637-1.628-3.637-3.637v-13.337
	c0-2.008,1.628-3.637,3.637-3.637H62.39c2.009,0,3.637,1.629,3.637,3.637V117.89z"/>
<path display="none" d="M92.115,117.89c0,2.009-1.628,3.637-3.638,3.637H75.139c-2.009,0-3.637-1.628-3.637-3.637v-13.337
	c0-2.008,1.628-3.637,3.637-3.637h13.337c2.01,0,3.638,1.629,3.638,3.637V117.89z"/>
<path display="none" d="M118.201,117.89c0,2.009-1.629,3.637-3.638,3.637h-13.337c-2.009,0-3.638-1.628-3.638-3.637v-13.337
	c0-2.008,1.629-3.637,3.638-3.637h13.337c2.009,0,3.638,1.629,3.638,3.637V117.89z"/>
<path display="none" d="M144.288,117.89c0,2.009-1.628,3.637-3.638,3.637h-13.337c-2.009,0-3.637-1.628-3.637-3.637v-13.337
	c0-2.008,1.628-3.637,3.637-3.637h13.337c2.01,0,3.638,1.629,3.638,3.637V117.89z"/>
<path display="none" d="M39.94,144.618c0,2.009-1.628,3.637-3.637,3.637H22.966c-2.009,0-3.638-1.628-3.638-3.637V131.28
	c0-2.009,1.629-3.637,3.638-3.637h13.337c2.009,0,3.637,1.628,3.637,3.637V144.618z"/>
<path display="none" d="M66.027,144.618c0,2.009-1.628,3.637-3.637,3.637H49.053c-2.009,0-3.637-1.628-3.637-3.637V131.28
	c0-2.009,1.628-3.637,3.637-3.637H62.39c2.009,0,3.637,1.628,3.637,3.637V144.618z"/>
<path display="none" d="M92.115,144.618c0,2.009-1.628,3.637-3.638,3.637H75.139c-2.009,0-3.637-1.628-3.637-3.637V131.28
	c0-2.009,1.628-3.637,3.637-3.637h13.337c2.01,0,3.638,1.628,3.638,3.637V144.618z"/>
<path display="none" d="M66.027,91.487c0,2.009-1.628,3.638-3.637,3.638H49.053c-2.009,0-3.637-1.629-3.637-3.638V78.15
	c0-2.009,1.628-3.638,3.637-3.638H62.39c2.009,0,3.637,1.629,3.637,3.638V91.487z"/>
<path display="none" d="M92.115,91.487c0,2.009-1.628,3.638-3.638,3.638H75.139c-2.009,0-3.637-1.629-3.637-3.638V78.15
	c0-2.009,1.628-3.638,3.637-3.638h13.337c2.01,0,3.638,1.629,3.638,3.638V91.487z"/>
<path display="none" d="M118.201,91.487c0,2.009-1.629,3.638-3.638,3.638h-13.337c-2.009,0-3.638-1.629-3.638-3.638V78.15
	c0-2.009,1.629-3.638,3.638-3.638h13.337c2.009,0,3.638,1.629,3.638,3.638V91.487z"/>
<path display="none" d="M144.288,91.487c0,2.009-1.628,3.638-3.638,3.638h-13.337c-2.009,0-3.637-1.629-3.637-3.638V78.15
	c0-2.009,1.628-3.638,3.637-3.638h13.337c2.01,0,3.638,1.629,3.638,3.638V91.487z"/>
<path display="none" d="M39.94,117.89c0,2.009-1.628,3.637-3.637,3.637H22.966c-2.009,0-3.638-1.628-3.638-3.637v-13.337
	c0-2.008,1.629-3.637,3.638-3.637h13.337c2.009,0,3.637,1.629,3.637,3.637V117.89z"/>
<path display="none" d="M66.027,117.89c0,2.009-1.628,3.637-3.637,3.637H49.053c-2.009,0-3.637-1.628-3.637-3.637v-13.337
	c0-2.008,1.628-3.637,3.637-3.637H62.39c2.009,0,3.637,1.629,3.637,3.637V117.89z"/>
<path display="none" d="M92.115,117.89c0,2.009-1.628,3.637-3.638,3.637H75.139c-2.009,0-3.637-1.628-3.637-3.637v-13.337
	c0-2.008,1.628-3.637,3.637-3.637h13.337c2.01,0,3.638,1.629,3.638,3.637V117.89z"/>
<path display="none" d="M118.201,144.618c0,2.009-1.629,3.637-3.638,3.637h-13.337c-2.009,0-3.638-1.628-3.638-3.637V131.28
	c0-2.008,1.629-3.637,3.638-3.637h13.337c2.009,0,3.638,1.629,3.638,3.637V144.618z"/>
<path display="none" d="M39.94,144.618c0,2.009-1.628,3.637-3.637,3.637H22.966c-2.009,0-3.638-1.628-3.638-3.637V131.28
	c0-2.009,1.629-3.637,3.638-3.637h13.337c2.009,0,3.637,1.628,3.637,3.637V144.618z"/>
<path display="none" d="M66.027,144.618c0,2.009-1.628,3.637-3.637,3.637H49.053c-2.009,0-3.637-1.628-3.637-3.637V131.28
	c0-2.009,1.628-3.637,3.637-3.637H62.39c2.009,0,3.637,1.628,3.637,3.637V144.618z"/>
<path display="none" d="M92.115,144.618c0,2.009-1.628,3.637-3.638,3.637H75.139c-2.009,0-3.637-1.628-3.637-3.637V131.28
	c0-2.009,1.628-3.637,3.637-3.637h13.337c2.01,0,3.638,1.628,3.638,3.637V144.618z"/>
<path display="none" d="M183.346,112.183c0,3.168-2.567,5.731-5.732,5.731h-68.647c-3.166,0-5.732-2.563-5.732-5.731v-0.347
	c0-3.169,2.567-5.733,5.732-5.733h68.647c3.166,0,5.732,2.564,5.732,5.733V112.183z"/>
<path display="none" d="M181.42,116.235c-2.24,2.24-5.868,2.238-8.106,0l-22.41-22.409c-2.238-2.238-2.24-5.866,0-8.106l0.245-0.246
	c2.241-2.241,5.869-2.238,8.107,0l22.409,22.409c2.239,2.238,2.241,5.866,0,8.107L181.42,116.235z"/>
<path display="none" d="M181.667,108.028c2.24,2.24,2.237,5.868-0.001,8.106l-22.409,22.409c-2.239,2.239-5.866,2.241-8.106,0
	l-0.246-0.245c-2.24-2.24-2.238-5.869,0-8.107l22.41-22.409c2.238-2.238,5.866-2.241,8.107,0L181.667,108.028z"/>
<path display="none" d="M44.447,42.493c0,2.656-2.154,4.808-4.811,4.808h0.513c-2.655,0-4.809-2.152-4.809-4.808V4.808
	C35.34,2.152,37.494,0,40.149,0h-0.513c2.657,0,4.811,2.152,4.811,4.808V42.493z"/>
<path display="none" d="M127.547,42.493c0,2.656-2.153,4.808-4.811,4.808h0.513c-2.655,0-4.809-2.152-4.809-4.808V4.808
	c0-2.656,2.154-4.808,4.809-4.808h-0.513c2.657,0,4.811,2.152,4.811,4.808V42.493z"/>
<circle display="none" cx="39.894" cy="43.196" r="9.591"/>
<circle display="none" cx="122.994" cy="43.196" r="9.591"/>
<polyline display="none" points="7.24,67.177 156.167,67.177 156.167,57.177 7.24,57.177 "/>
<path display="none" fill="none" d="M149.905,28.656c-0.795-0.788-1.84-1.259-3.045-1.262H16.548
	c-1.205,0.002-2.25,0.474-3.046,1.262c-0.788,0.795-1.259,1.841-1.262,3.046v120.947c0.002,1.206,0.475,2.251,1.262,3.046
	c0.795,0.788,1.841,1.259,3.046,1.262h130.312c1.206-0.002,2.25-0.474,3.045-1.262c0.787-0.795,1.259-1.841,1.262-3.046v-7.305
	h-3.822V79.719h3.822V31.702C151.164,30.496,150.692,29.451,149.905,28.656z"/>
<path display="none" d="M151.167,152.648c-0.002,1.206-0.475,2.251-1.262,3.046c-0.795,0.788-1.84,1.259-3.045,1.262H16.548
	c-1.205-0.002-2.25-0.474-3.046-1.262c-0.787-0.795-1.259-1.841-1.262-3.046V31.702c0.002-1.205,0.474-2.25,1.262-3.046
	c0.795-0.788,1.841-1.259,3.046-1.262h130.312c1.206,0.002,2.25,0.474,3.045,1.262c0.788,0.795,1.259,1.84,1.262,3.046v48.018h10
	V31.702c0.002-3.935-1.609-7.543-4.19-10.117c-2.573-2.582-6.182-4.193-10.117-4.191H16.548c-3.935-0.002-7.543,1.609-10.117,4.191
	C3.85,24.158,2.238,27.767,2.24,31.702v120.947c-0.002,3.935,1.609,7.544,4.19,10.117c2.574,2.582,6.182,4.193,10.117,4.191h130.312
	c3.935,0.002,7.544-1.609,10.117-4.191c2.581-2.574,4.192-6.182,4.19-10.117v-7.305h-10V152.648z"/>
<path display="none" d="M39.94,117.89c0,2.009-1.628,3.637-3.637,3.637H22.966c-2.009,0-3.638-1.628-3.638-3.637v-13.337
	c0-2.008,1.629-3.637,3.638-3.637h13.337c2.009,0,3.637,1.629,3.637,3.637V117.89z"/>
<path display="none" d="M66.027,117.89c0,2.009-1.628,3.637-3.637,3.637H49.053c-2.009,0-3.637-1.628-3.637-3.637v-13.337
	c0-2.008,1.628-3.637,3.637-3.637H62.39c2.009,0,3.637,1.629,3.637,3.637V117.89z"/>
<path display="none" d="M92.115,117.89c0,2.009-1.628,3.637-3.638,3.637H75.139c-2.009,0-3.637-1.628-3.637-3.637v-13.337
	c0-2.008,1.628-3.637,3.637-3.637h13.337c2.01,0,3.638,1.629,3.638,3.637V117.89z"/>
<path display="none" d="M118.201,117.89c0,2.009-1.629,3.637-3.638,3.637h-13.337c-2.009,0-3.638-1.628-3.638-3.637v-13.337
	c0-2.008,1.629-3.637,3.638-3.637h13.337c2.009,0,3.638,1.629,3.638,3.637V117.89z"/>
<path display="none" d="M144.288,117.89c0,2.009-1.628,3.637-3.638,3.637h-13.337c-2.009,0-3.637-1.628-3.637-3.637v-13.337
	c0-2.008,1.628-3.637,3.637-3.637h13.337c2.01,0,3.638,1.629,3.638,3.637V117.89z"/>
<path display="none" d="M39.94,117.89c0,2.009-1.628,3.637-3.637,3.637H22.966c-2.009,0-3.638-1.628-3.638-3.637v-13.337
	c0-2.008,1.629-3.637,3.638-3.637h13.337c2.009,0,3.637,1.629,3.637,3.637V117.89z"/>
<path display="none" d="M66.027,117.89c0,2.009-1.628,3.637-3.637,3.637H49.053c-2.009,0-3.637-1.628-3.637-3.637v-13.337
	c0-2.008,1.628-3.637,3.637-3.637H62.39c2.009,0,3.637,1.629,3.637,3.637V117.89z"/>
<path display="none" d="M92.115,117.89c0,2.009-1.628,3.637-3.638,3.637H75.139c-2.009,0-3.637-1.628-3.637-3.637v-13.337
	c0-2.008,1.628-3.637,3.637-3.637h13.337c2.01,0,3.638,1.629,3.638,3.637V117.89z"/>
<path display="none" d="M118.201,117.89c0,2.009-1.629,3.637-3.638,3.637h-13.337c-2.009,0-3.638-1.628-3.638-3.637v-13.337
	c0-2.008,1.629-3.637,3.638-3.637h13.337c2.009,0,3.638,1.629,3.638,3.637V117.89z"/>
<path display="none" d="M143.606,117.89c0,2.009-1.629,3.637-3.638,3.637h-13.337c-2.009,0-3.638-1.628-3.638-3.637v-13.337
	c0-2.008,1.629-3.637,3.638-3.637h13.337c2.009,0,3.638,1.629,3.638,3.637V117.89z"/>
<path display="none" fill="#FFFFFF" d="M145.833,142.138c0,0.452,0.217,0.818,0.484,0.818h42.544c0.267,0,0.484-0.366,0.484-0.818
	V79.538c0-0.452-0.217-0.818-0.484-0.818h-42.544c-0.267,0-0.484,0.366-0.484,0.818V142.138z"/>
<path display="none" fill="#FFFFFF" d="M228.113,111.329c0,5.834-4.727,10.554-10.557,10.554h-78.534
	c-5.829,0-10.556-4.72-10.556-10.554v-0.638c0-5.835,4.727-10.557,10.556-10.557h78.534c5.83,0,10.557,4.722,10.557,10.557V111.329z
	"/>
<path display="none" d="M183.346,111.183c0,3.168-2.567,5.731-5.732,5.731h-35.647c-3.166,0-5.732-2.563-5.732-5.731v-0.347
	c0-3.169,2.567-5.733,5.732-5.733h35.647c3.166,0,5.732,2.564,5.732,5.733V111.183z"/>
<path display="none" d="M181.42,115.235c-2.24,2.24-5.868,2.238-8.106,0l-22.41-22.409c-2.238-2.238-2.24-5.866,0-8.106l0.245-0.246
	c2.241-2.241,5.869-2.238,8.107,0l22.409,22.409c2.239,2.238,2.241,5.866,0,8.107L181.42,115.235z"/>
<path display="none" d="M181.667,107.028c2.24,2.24,2.237,5.868-0.001,8.106l-22.409,22.409c-2.239,2.239-5.866,2.241-8.106,0
	l-0.246-0.245c-2.24-2.24-2.238-5.869,0-8.107l22.41-22.409c2.238-2.238,5.866-2.241,8.107,0L181.667,107.028z"/>
<path display="none" d="M39.94,117.89c0,2.009-1.628,3.637-3.637,3.637H22.966c-2.009,0-3.638-1.628-3.638-3.637v-13.337
	c0-2.008,1.629-3.637,3.638-3.637h13.337c2.009,0,3.637,1.629,3.637,3.637V117.89z"/>
<path display="none" d="M66.027,117.89c0,2.009-1.628,3.637-3.637,3.637H49.053c-2.009,0-3.637-1.628-3.637-3.637v-13.337
	c0-2.008,1.628-3.637,3.637-3.637H62.39c2.009,0,3.637,1.629,3.637,3.637V117.89z"/>
<path display="none" d="M92.115,117.89c0,2.009-1.628,3.637-3.638,3.637H75.139c-2.009,0-3.637-1.628-3.637-3.637v-13.337
	c0-2.008,1.628-3.637,3.637-3.637h13.337c2.01,0,3.638,1.629,3.638,3.637V117.89z"/>
<path display="none" d="M118.201,117.89c0,2.009-1.629,3.637-3.638,3.637h-13.337c-2.009,0-3.638-1.628-3.638-3.637v-13.337
	c0-2.008,1.629-3.637,3.638-3.637h13.337c2.009,0,3.638,1.629,3.638,3.637V117.89z"/>
<path display="none" d="M44.447,42.493c0,2.656-2.154,4.808-4.811,4.808h0.513c-2.655,0-4.809-2.152-4.809-4.808V4.808
	C35.34,2.152,37.494,0,40.149,0h-0.513c2.657,0,4.811,2.152,4.811,4.808V42.493z"/>
<path display="none" d="M127.547,42.493c0,2.656-2.153,4.808-4.811,4.808h0.513c-2.655,0-4.809-2.152-4.809-4.808V4.808
	c0-2.656,2.154-4.808,4.809-4.808h-0.513c2.657,0,4.811,2.152,4.811,4.808V42.493z"/>
<circle display="none" cx="39.894" cy="43.196" r="9.591"/>
<circle display="none" cx="122.994" cy="43.196" r="9.591"/>
<polyline display="none" points="7.24,67.177 156.167,67.177 156.167,57.177 7.24,57.177 "/>
<path display="none" fill="none" d="M149.905,28.656c-0.795-0.788-1.84-1.259-3.045-1.262H16.548
	c-1.205,0.002-2.25,0.474-3.046,1.262c-0.788,0.795-1.259,1.841-1.262,3.046v120.947c0.002,1.206,0.475,2.251,1.262,3.046
	c0.795,0.788,1.841,1.259,3.046,1.262h130.312c1.206-0.002,2.25-0.474,3.045-1.262c0.787-0.795,1.259-1.841,1.262-3.046v-9.692
	h-4.849c-0.267,0-0.484-0.366-0.484-0.818v-20.255h-6.811c-0.928,0-1.823-0.132-2.681-0.356h-9.71c-2.009,0-3.638-1.628-3.638-3.637
	v-13.337c0-2.008,1.629-3.637,3.638-3.637h8.413c1.229-0.5,2.57-0.781,3.978-0.781h6.811V79.538c0-0.452,0.217-0.818,0.484-0.818
	h4.849V31.702C151.164,30.496,150.692,29.451,149.905,28.656z"/>
<path display="none" d="M122.994,104.552v13.337c0,2.009,1.629,3.637,3.638,3.637h9.71c-4.529-1.187-7.875-5.292-7.875-10.198
	v-0.638c0-4.426,2.721-8.205,6.578-9.776h-8.413C124.623,100.915,122.994,102.544,122.994,104.552z"/>
<path display="none" d="M151.167,152.648c-0.002,1.206-0.475,2.251-1.262,3.046c-0.795,0.788-1.84,1.259-3.045,1.262H16.548
	c-1.205-0.002-2.25-0.474-3.046-1.262c-0.787-0.795-1.259-1.841-1.262-3.046V31.702c0.002-1.205,0.474-2.25,1.262-3.046
	c0.795-0.788,1.841-1.259,3.046-1.262h130.312c1.206,0.002,2.25,0.474,3.045,1.262c0.788,0.795,1.259,1.84,1.262,3.046v47.018h10
	V31.702c0.002-3.935-1.609-7.543-4.19-10.117c-2.573-2.582-6.182-4.193-10.117-4.191H16.548c-3.935-0.002-7.543,1.609-10.117,4.191
	C3.85,24.158,2.238,27.767,2.24,31.702v120.947c-0.002,3.935,1.609,7.544,4.19,10.117c2.574,2.582,6.182,4.193,10.117,4.191h130.312
	c3.935,0.002,7.544-1.609,10.117-4.191c2.581-2.574,4.192-6.182,4.19-10.117v-9.692h-10V152.648z"/>
<path display="none" d="M183.346,111.183c0,3.168-2.567,5.731-5.732,5.731h-35.647c-3.166,0-5.732-2.563-5.732-5.731v-0.347
	c0-3.169,2.567-5.733,5.732-5.733h35.647c3.166,0,5.732,2.564,5.732,5.733V111.183z"/>
<path display="none" d="M181.42,115.235c-2.24,2.24-5.868,2.238-8.106,0l-22.41-22.409c-2.238-2.238-2.24-5.866,0-8.106l0.245-0.246
	c2.241-2.241,5.869-2.238,8.107,0l22.409,22.409c2.239,2.238,2.241,5.866,0,8.107L181.42,115.235z"/>
<path display="none" d="M181.667,107.028c2.24,2.24,2.237,5.868-0.001,8.106l-22.409,22.409c-2.239,2.239-5.866,2.241-8.106,0
	l-0.246-0.245c-2.24-2.24-2.238-5.869,0-8.107l22.41-22.409c2.238-2.238,5.866-2.241,8.107,0L181.667,107.028z"/>
<rect x="31.484" y="83.445" display="none" fill="none" width="98.995" height="88.496"/>
<text transform="matrix(1 0 0 1 58.7358 140.8838)" display="none" font-family="'Helvetica-Bold'" font-size="80">1</text>
<path display="none" d="M77.916,140.884h5.625h5.586V83.931h-9.18c-1.433,3.203-3.542,5.664-6.328,7.383
	c-2.761,1.719-5.886,2.487-9.375,2.305v8.008h13.672V140.884z"/>
<rect x="31.484" y="83.445" display="none" fill="none" width="98.995" height="88.496"/>
<text transform="matrix(1 0 0 1 58.7358 140.8838)" display="none" font-family="'Helvetica-Bold'" font-size="80">1</text>
<path display="none" fill="#FFFFFF" d="M99.5,143.138c0,0.452,0.448,0.818,1,0.818h87.846c0.552,0,1-0.366,1-0.818V80.538
	c0-0.452-0.448-0.818-1-0.818H100.5c-0.552,0-1,0.366-1,0.818V143.138z"/>
<path display="none" d="M183.346,112.183c0,3.168-2.567,5.731-5.732,5.731h-62.647c-3.166,0-5.732-2.563-5.732-5.731v-0.347
	c0-3.169,2.567-5.733,5.732-5.733h62.647c3.166,0,5.732,2.564,5.732,5.733V112.183z"/>
<path display="none" d="M181.42,116.235c-2.24,2.24-5.868,2.238-8.106,0l-22.41-22.409c-2.238-2.238-2.24-5.866,0-8.106l0.245-0.246
	c2.241-2.241,5.869-2.238,8.107,0l22.409,22.409c2.239,2.238,2.241,5.866,0,8.107L181.42,116.235z"/>
<path display="none" d="M181.667,108.028c2.24,2.24,2.237,5.868-0.001,8.106l-22.409,22.409c-2.239,2.239-5.866,2.241-8.106,0
	l-0.246-0.245c-2.24-2.24-2.238-5.869,0-8.107l22.41-22.409c2.238-2.238,5.866-2.241,8.107,0L181.667,108.028z"/>
<path display="none" d="M44.447,42.493c0,2.656-2.154,4.808-4.811,4.808h0.513c-2.655,0-4.809-2.152-4.809-4.808V4.808
	C35.34,2.152,37.494,0,40.149,0h-0.513c2.657,0,4.811,2.152,4.811,4.808V42.493z"/>
<path display="none" d="M127.547,42.493c0,2.656-2.153,4.808-4.811,4.808h0.513c-2.655,0-4.809-2.152-4.809-4.808V4.808
	c0-2.656,2.154-4.808,4.809-4.808h-0.513c2.657,0,4.811,2.152,4.811,4.808V42.493z"/>
<circle display="none" cx="39.894" cy="43.196" r="9.591"/>
<circle display="none" cx="122.994" cy="43.196" r="9.591"/>
<polyline display="none" points="7.24,67.177 156.167,67.177 156.167,57.177 7.24,57.177 "/>
<path display="none" d="M77.916,140.884h5.625h5.586V83.931h-9.18c-1.433,3.203-3.542,5.664-6.328,7.383
	c-2.761,1.719-5.886,2.487-9.375,2.305v8.008h13.672V140.884z"/>
<path display="none" fill="none" d="M149.905,28.656c-0.795-0.788-1.84-1.259-3.045-1.262H16.548
	c-1.205,0.002-2.25,0.474-3.046,1.262c-0.788,0.795-1.259,1.841-1.262,3.046v120.947c0.002,1.206,0.475,2.251,1.262,3.046
	c0.795,0.788,1.841,1.259,3.046,1.262h130.312c1.206-0.002,2.25-0.474,3.045-1.262c0.787-0.795,1.259-1.841,1.262-3.046v-8.692
	H100.5c-0.552,0-1-0.366-1-0.818V80.538c0-0.452,0.448-0.818,1-0.818h50.667V31.702C151.164,30.496,150.692,29.451,149.905,28.656z"
	/>
<path display="none" d="M151.167,152.648c-0.002,1.206-0.475,2.251-1.262,3.046c-0.795,0.788-1.84,1.259-3.045,1.262H16.548
	c-1.205-0.002-2.25-0.474-3.046-1.262c-0.787-0.795-1.259-1.841-1.262-3.046V31.702c0.002-1.205,0.474-2.25,1.262-3.046
	c0.795-0.788,1.841-1.259,3.046-1.262h130.312c1.206,0.002,2.25,0.474,3.045,1.262c0.788,0.795,1.259,1.84,1.262,3.046v48.018h10
	V31.702c0.002-3.935-1.609-7.543-4.19-10.117c-2.573-2.582-6.182-4.193-10.117-4.191H16.548c-3.935-0.002-7.543,1.609-10.117,4.191
	C3.85,24.158,2.238,27.767,2.24,31.702v120.947c-0.002,3.935,1.609,7.544,4.19,10.117c2.574,2.582,6.182,4.193,10.117,4.191h130.312
	c3.935,0.002,7.544-1.609,10.117-4.191c2.581-2.574,4.192-6.182,4.19-10.117v-8.692h-10V152.648z"/>
<path display="none" d="M183.346,112.183c0,3.168-2.567,5.731-5.732,5.731h-62.647c-3.166,0-5.732-2.563-5.732-5.731v-0.347
	c0-3.169,2.567-5.733,5.732-5.733h62.647c3.166,0,5.732,2.564,5.732,5.733V112.183z"/>
<path display="none" d="M181.42,116.235c-2.24,2.24-5.868,2.238-8.106,0l-22.41-22.409c-2.238-2.238-2.24-5.866,0-8.106l0.245-0.246
	c2.241-2.241,5.869-2.238,8.107,0l22.409,22.409c2.239,2.238,2.241,5.866,0,8.107L181.42,116.235z"/>
<path display="none" d="M181.667,108.028c2.24,2.24,2.237,5.868-0.001,8.106l-22.409,22.409c-2.239,2.239-5.866,2.241-8.106,0
	l-0.246-0.245c-2.24-2.24-2.238-5.869,0-8.107l22.41-22.409c2.238-2.238,5.866-2.241,8.107,0L181.667,108.028z"/>
<path display="none" d="M121.547,106.393v-5.662l2.538-2.478h8.08l2.595,2.478v5.603l-2.595,2.596h-8.08L121.547,106.393z
	 M119.07,132.464h18.168l6.605-6.606V97.782l-6.605-6.606H119.07l-6.605,6.606v11.561l6.605,6.606h13.39v5.957l-1.297,1.298h-6.017
	l-1.356-1.357v-2.713h-11.325v6.725L119.07,132.464z M89.931,131.461v-7.314h5.191v-19.76h-5.191V99.02l6.843-6.842h7.726v31.969
	h4.13v7.314H89.931z M66.691,124.147h6.488l2.065-2.064v-20.526l-2.065-2.064h-6.488l-2.065,2.064v20.526L66.691,124.147z
	 M55.247,125.387V98.253l6.076-6.075h17.224l6.074,6.075v27.134l-6.074,6.075H61.323L55.247,125.387z M50.943,132.464v-10.676
	H37.848l13.095-13.095V97.782l-6.605-6.606H26.169l-6.605,6.606v8.199h11.325v-4.128l1.356-1.357h5.958l1.356,1.357v2.654
	L19.564,122.85v9.614H50.943z"/>
<path display="none" d="M66.05,143.874c-4.227-3.799-5.016-9.801-1.771-13.411l46.275-53.492c3.244-3.61,9.294-3.462,13.521,0.337
	l0.463,0.416c4.228,3.8,5.018,9.803,1.773,13.412l-46.274,53.492c-3.245,3.609-9.296,3.462-13.525-0.339L66.05,143.874z"/>
<path display="none" d="M80.264,143.878c-3.998,4.04-10.506,4.066-14.544,0.072l-22.462-22.057
	c-4.037-3.997-4.073-10.504-0.074-14.543l0.437-0.441c3.999-4.04,10.509-4.069,14.544-0.075l22.464,22.06
	c4.036,3.996,4.074,10.503,0.074,14.543L80.264,143.878z"/>
<path display="none" d="M82.073,149.409c-5.495-0.115-9.855-4.319-9.747-9.389l0.268-73.876c0.107-5.068,4.641-9.083,10.137-8.965
	l0.601,0.012c5.496,0.117,9.857,4.321,9.75,9.39l-0.267,73.877c-0.109,5.068-4.643,9.084-10.14,8.967L82.073,149.409z"/>
<path display="none" d="M129.735,103.951c-0.115,5.495-4.402,9.853-9.573,9.743l-75.355-0.299c-5.17-0.109-9.267-4.645-9.149-10.141
	l0.012-0.601c0.117-5.496,4.404-9.855,9.574-9.746l75.355,0.298c5.169,0.111,9.268,4.646,9.151,10.144L129.735,103.951z"/>
<path display="none" d="M156.977,21.585c-2.573-2.582-6.182-4.193-10.117-4.191h-19.313V4.808c0-2.568-2.019-4.646-4.554-4.782
	c-2.534,0.136-4.553,2.214-4.553,4.782v12.586H44.447V4.808c0-2.568-2.019-4.646-4.554-4.782C37.359,0.162,35.34,2.24,35.34,4.808
	v12.586H16.548c-3.935-0.002-7.543,1.609-10.117,4.191C3.85,24.158,2.238,27.767,2.24,31.702v120.947
	c-0.002,3.935,1.609,7.544,4.19,10.117c2.574,2.582,6.182,4.193,10.117,4.191h130.312c3.935,0.002,7.544-1.609,10.117-4.191
	c2.581-2.574,4.192-6.182,4.19-10.117V31.702C161.169,27.767,159.558,24.159,156.977,21.585z M151.167,57.177h-51.008v10h51.008
	v85.472c-0.002,1.206-0.475,2.251-1.262,3.046c-0.795,0.788-1.84,1.259-3.045,1.262H16.548c-1.205-0.002-2.25-0.474-3.046-1.262
	c-0.787-0.795-1.259-1.841-1.262-3.046V67.177H65.25v-10H12.24V31.702c0.002-1.205,0.474-2.25,1.262-3.046
	c0.795-0.788,1.841-1.259,3.046-1.262H35.34v7.36c-2.999,1.621-5.037,4.793-5.037,8.441c0,5.296,4.294,9.59,9.59,9.59
	c5.297,0,9.591-4.294,9.591-9.59c0-3.648-2.038-6.82-5.037-8.441v-7.36h73.993v7.36c-2.999,1.621-5.037,4.793-5.037,8.441
	c0,5.296,4.294,9.59,9.59,9.59c5.297,0,9.591-4.294,9.591-9.59c0-3.648-2.038-6.82-5.038-8.441v-7.36h19.313
	c1.206,0.002,2.25,0.474,3.045,1.262c0.788,0.795,1.259,1.84,1.262,3.046V57.177z"/>
<path display="none" d="M93.081,65.58c0.108-5.068-4.254-9.273-9.75-9.39l-0.601-0.012c-5.496-0.117-10.029,3.897-10.137,8.965
	l-0.098,26.873l-27.252-0.108c-5.17-0.11-9.457,4.25-9.574,9.746l-0.012,0.601c-0.117,5.496,3.979,10.031,9.149,10.141l27.615,0.11
	l-0.096,26.515c-0.108,5.07,4.252,9.274,9.747,9.389l0.601,0.015c5.498,0.117,10.031-3.899,10.14-8.967l0.097-26.871l27.251,0.108
	c5.171,0.11,9.458-4.248,9.573-9.743l0.015-0.601c0.117-5.498-3.981-10.033-9.151-10.144l-27.614-0.109L93.081,65.58z"/>
<path display="none" d="M156.977,21.585c-2.573-2.582-6.182-4.193-10.117-4.191h-19.313V4.808c0-2.568-2.019-4.646-4.554-4.782
	c-2.534,0.136-4.553,2.214-4.553,4.782v12.586H44.447V4.808c0-2.568-2.019-4.646-4.554-4.782C37.359,0.162,35.34,2.24,35.34,4.808
	v12.586H16.548c-3.935-0.002-7.543,1.609-10.117,4.191C3.85,24.158,2.238,27.767,2.24,31.702v120.947
	c-0.002,3.935,1.609,7.544,4.19,10.117c2.574,2.582,6.182,4.193,10.117,4.191h130.312c3.935,0.002,7.544-1.609,10.117-4.191
	c2.581-2.574,4.192-6.182,4.19-10.117V31.702C161.169,27.767,159.558,24.159,156.977,21.585z M151.167,57.177h-11.008v10h11.008
	v85.472c-0.002,1.206-0.475,2.251-1.262,3.046c-0.795,0.788-1.84,1.259-3.045,1.262H16.548c-1.205-0.002-2.25-0.474-3.046-1.262
	c-0.787-0.795-1.259-1.841-1.262-3.046V67.177H25.25v-10H12.24V31.702c0.002-1.205,0.474-2.25,1.262-3.046
	c0.795-0.788,1.841-1.259,3.046-1.262H35.34v7.36c-2.999,1.621-5.037,4.793-5.037,8.441c0,5.296,4.294,9.59,9.59,9.59
	c5.297,0,9.591-4.294,9.591-9.59c0-3.648-2.038-6.82-5.037-8.441v-7.36h73.993v7.36c-2.999,1.621-5.037,4.793-5.037,8.441
	c0,5.296,4.294,9.59,9.59,9.59c5.297,0,9.591-4.294,9.591-9.59c0-3.648-2.038-6.82-5.038-8.441v-7.36h19.313
	c1.206,0.002,2.25,0.474,3.045,1.262c0.788,0.795,1.259,1.84,1.262,3.046V57.177z"/>
<path display="none" d="M53.784,85.725l11.253,13.422l8.226-39.926l-40.749,1.134l10.598,12.641
	c-2.117,2.784-3.947,5.799-5.431,9.013c-2.852,6.175-4.443,13.071-4.441,20.291c-0.003,10.715,3.502,20.688,9.415,28.709
	c5.911,8.027,14.233,14.164,23.93,17.348l4.988-15.203h0c-6.468-2.12-12.066-6.241-16.033-11.631
	c-3.966-5.396-6.296-11.999-6.3-19.223c0.001-4.875,1.064-9.455,2.969-13.585C52.683,87.689,53.209,86.691,53.784,85.725z"/>
<path display="none" d="M125.008,124.078c3.3-6.547,5.161-13.972,5.159-21.778c0.004-11.171-3.807-21.53-10.181-29.72
	c-6.372-8.197-15.32-14.296-25.66-17.081l-4.158,15.45c6.895,1.854,12.906,5.943,17.186,11.449
	c4.277,5.513,6.81,12.373,6.813,19.901c-0.002,5.27-1.243,10.196-3.448,14.58c-0.672,1.334-1.445,2.61-2.29,3.833l-11.127-13.272
	l-8.226,39.926l40.749-1.134l-10.857-12.95C121.31,130.468,123.342,127.384,125.008,124.078z"/>
<path display="none" fill="#010101" d="M126.954,139.569c-7.027-0.125-12.625-5.094-12.518-11.094l-0.015-83.359
	c0.107-6,5.881-10.763,12.907-10.636l0.769,0.014c7.028,0.126,12.63,5.094,12.522,11.095l0.015,83.358
	c-0.109,6-5.882,10.765-12.912,10.639L126.954,139.569z"/>
<path display="none" fill="#010101" d="M23.655,149.467c-5.238-5.43-5.717-13.449-1.079-17.922l94.62-94.644
	c4.636-4.473,12.631-3.704,17.87,1.725l0.574,0.595c5.237,5.43,5.715,13.451,1.081,17.924l-94.62,94.643
	c-4.638,4.472-12.634,3.706-17.873-1.724L23.655,149.467z"/>
<path display="none" fill="#010101" d="M140.608,47.343c-0.126,7.026-5.094,12.625-11.096,12.517l-83.36,0.014
	c-6-0.107-10.763-5.879-10.636-12.905l0.013-0.77c0.127-7.027,5.096-12.628,11.096-12.52l83.359-0.016
	c6,0.108,10.765,5.882,10.638,12.912L140.608,47.343z"/>
<path display="none" d="M132.002,60.38c-1.239-2.3-4.502-4.182-7.252-4.182H38c-2.75,0-5.914,1.926-7.031,4.281L11.03,102.51
	C9.913,104.864,9,108.898,9,111.475v30.684c0,2.577,2.25,4.685,5,4.685h138c2.75,0,5-2.108,5-4.685v-30.684
	c0-2.577-1.014-6.566-2.252-8.867L132.002,60.38z"/>
<path display="none" fill="#FFFFFF" d="M124.895,66.099c-1.239-2.3-4.502-4.182-7.252-4.182H45.601c-2.75,0-5.914,1.926-7.031,4.281
	l-18.321,38.25H44c12.25,0,12.25,18.504,24.75,18.504H96.5c12.5,0,12.5-18.504,24.75-18.504h24.5L124.895,66.099z"/>
<rect x="70.308" y="46.736" display="none" fill="#FFFFFF" width="23.876" height="21.675"/>
<path display="none" d="M82.118,109.684c-4.175,0-7.554-3.383-7.554-7.555V29.562c0-4.172,3.378-7.555,7.554-7.555h0.457
	c4.176,0,7.556,3.383,7.556,7.555v72.567c0,4.172-3.379,7.555-7.556,7.555H82.118z"/>
<path display="none" d="M76.777,107.146c-2.953-2.952-2.949-7.733,0-10.684l29.535-29.535c2.95-2.95,7.731-2.952,10.683,0
	l0.324,0.323c2.953,2.953,2.95,7.735,0,10.685l-29.534,29.534c-2.95,2.951-7.731,2.953-10.685,0L76.777,107.146z"/>
<path display="none" d="M87.593,107.471c-2.952,2.952-7.733,2.949-10.684-0.001L47.375,77.936c-2.951-2.951-2.953-7.731,0-10.684
	l0.323-0.324c2.953-2.952,7.735-2.95,10.685,0l29.535,29.535c2.95,2.95,2.953,7.731,0,10.685L87.593,107.471z"/>
<path display="none" d="M163.473,104.82l-25.511-47.364c-1.39-2.58-5.05-4.69-8.134-4.69H95.545v6.415h26.31
	c3.084,0,6.745,2.111,8.135,4.691l23.391,43.013h-27.479c-13.74,0-13.74,20.754-27.76,20.754H67.017
	c-14.021,0-14.021-20.754-27.76-20.754H12.618l20.549-42.902c1.252-2.641,4.801-4.801,7.886-4.801h27.712v-6.415H32.527
	c-3.084,0-6.633,2.16-7.886,4.801L2.278,104.709C1.025,107.35,0,111.875,0,114.765v34.416c0,2.89,2.523,5.254,5.608,5.254h154.783
	c3.084,0,5.608-2.364,5.608-5.254v-34.416C165.999,111.875,164.862,107.4,163.473,104.82z"/>
<path display="none" d="M43.404,64.8l-0.362,0.363c-3.312,3.312-3.309,8.674,0,11.983l32.144,32.144
	c1.541,2.097,4.019,3.465,6.824,3.465h0.513c2.808,0,5.286-1.369,6.828-3.468l32.142-32.141c3.309-3.309,3.312-8.672,0-11.984
	l-0.363-0.363c-3.311-3.311-8.674-3.309-11.982,0L90.998,82.95V22.889c0-4.679-3.791-8.473-8.475-8.473H82.01
	c-4.683,0-8.472,3.794-8.472,8.473V82.95L55.388,64.8C52.08,61.491,46.716,61.489,43.404,64.8z"/>
<path display="none" d="M159.266,96.683l-24.177-44.888c-1.317-2.445-4.786-4.445-7.709-4.445H74.19l5.251,6.079h40.383
	c2.923,0,6.393,2.001,7.709,4.446l22.168,40.764h-26.043c-1.663,0-3.112,0.325-4.405,0.884l38.08,44.087
	c2.454-0.438,4.326-2.464,4.326-4.885v-32.616C161.66,103.369,160.583,99.128,159.266,96.683z"/>
<path display="none" d="M67.852,118.308c-13.287,0-13.287-19.669-26.309-19.669H16.297L31.52,66.857l-7.051-8.164L6.498,96.579
	c-1.188,2.502-2.159,6.791-2.159,9.53v32.616c0,2.739,2.392,4.979,5.315,4.979h88.242L75.96,118.308H67.852z"/>
<polyline display="none" points="22.754,38.035 133.535,166.294 149.15,152.809 38.368,24.549 "/>
<path display="none" fill="#FFFFFF" d="M124.895,60.099c-1.239-2.3-4.502-4.182-7.252-4.182H45.601c-2.75,0-5.914,1.926-7.031,4.281
	L20.25,98.448H44c12.25,0,12.25,18.504,24.75,18.504H96.5c12.5,0,12.5-18.504,24.75-18.504h24.5L124.895,60.099z"/>
<rect x="76.072" y="15.703" transform="matrix(0.7568 -0.6536 0.6536 0.7568 -41.5109 79.2731)" display="none" width="19.41" height="159.437"/>
<path display="none" d="M82.815,88.695l26.155-26.154c3.22-3.219,3.222-8.438,0-11.66l-0.353-0.353
	c-3.222-3.222-8.439-3.219-11.66,0.001L64.725,82.76c-1.636,1.636-2.437,3.788-2.411,5.933c-0.027,2.146,0.772,4.299,2.41,5.937
	l32.232,32.232c3.22,3.219,8.438,3.223,11.66,0l0.353-0.353c3.222-3.222,3.22-8.44,0-11.659L82.815,88.695z"/>
<path display="none" d="M135.833,9.778H49.567c-3.758-0.001-7.382,0.767-10.664,2.156c-4.926,2.085-9.091,5.547-12.043,9.914
	c-2.953,4.361-4.687,9.677-4.683,15.32v105.785c-0.001,3.758,0.767,7.383,2.156,10.664c2.086,4.927,5.547,9.092,9.915,12.043
	c4.361,2.952,9.677,4.686,15.32,4.683h86.266v-17H49.567c-1.458-0.001-2.803-0.291-4.042-0.813
	c-1.854-0.782-3.458-2.111-4.579-3.774c-1.122-1.668-1.766-3.622-1.77-5.803V37.168c0.001-1.458,0.291-2.803,0.813-4.042
	c0.782-1.854,2.111-3.457,3.774-4.579c1.668-1.122,3.622-1.766,5.803-1.77h86.266V9.778z"/>
<path display="none" d="M163.143,43.424c0,2.836-2.299,5.135-5.134,5.135H5.544c-2.835,0-5.134-2.299-5.134-5.135V31.748
	c0-2.835,2.299-5.134,5.134-5.134h152.464c2.835,0,5.134,2.299,5.134,5.134V43.424z"/>
<path display="none" d="M163.143,81.404c0,2.836-2.299,5.135-5.134,5.135H48.703c-2.835,0-5.134-2.299-5.134-5.135V69.727
	c0-2.835,2.299-5.134,5.134-5.134h109.305c2.835,0,5.134,2.299,5.134,5.134V81.404z"/>
<path display="none" d="M163.143,119.384c0,2.836-2.299,5.135-5.134,5.135H48.703c-2.835,0-5.134-2.299-5.134-5.135v-11.677
	c0-2.836,2.299-5.135,5.134-5.135h109.305c2.835,0,5.134,2.299,5.134,5.135V119.384z"/>
<path display="none" d="M163.143,157.363c0,2.836-2.299,5.135-5.134,5.135H48.703c-2.835,0-5.134-2.299-5.134-5.135v-11.677
	c0-2.835,2.299-5.134,5.134-5.134h109.305c2.835,0,5.134,2.299,5.134,5.134V157.363z"/>
<path d="M158.008,26.613H5.544c-2.835,0-5.134,2.299-5.134,5.134v11.677c0,2.836,2.299,5.135,5.134,5.135h35.314
	c10.917-9.607,25.232-15.446,40.917-15.446s30,5.839,40.917,15.446h35.314c2.835,0,5.134-2.299,5.134-5.135V31.748
	C163.143,28.912,160.843,26.613,158.008,26.613z"/>
<path d="M158.008,64.593h-22.283c3.767,6.649,6.339,14.059,7.429,21.946h14.854c2.835,0,5.134-2.299,5.134-5.135V69.727
	C163.143,66.892,160.843,64.593,158.008,64.593z"/>
<path d="M158.008,102.572h-14.717c-0.946,7.861-3.349,15.274-6.955,21.946h21.672c2.835,0,5.134-2.299,5.134-5.135v-11.677
	C163.143,104.871,160.843,102.572,158.008,102.572z"/>
<path d="M158.008,140.552h-34.117c-11.057,10.248-25.85,16.521-42.115,16.521c-14.293,0-27.446-4.851-37.93-12.979
	c-0.166,0.504-0.277,1.032-0.277,1.591v11.677c0,2.836,2.299,5.135,5.134,5.135h109.305c2.835,0,5.134-2.299,5.134-5.135v-11.677
	C163.143,142.851,160.843,140.552,158.008,140.552z"/>
<path d="M81.776,44.68c-27.843,0-50.413,22.57-50.413,50.413s22.57,50.413,50.413,50.413s50.413-22.57,50.413-50.413H81.776V44.68z"
	/>
</svg>
